<?xml version="1.0" standalone="no"?>
<!DOCTYPE svg PUBLIC "-//W3C//DTD SVG 20010904//EN"
 "http://www.w3.org/TR/2001/REC-SVG-20010904/DTD/svg10.dtd">
<svg version="1.0" xmlns="http://www.w3.org/2000/svg"
 width="1024.000000pt" height="1024.000000pt" viewBox="0 0 1024.000000 1024.000000"
 preserveAspectRatio="xMidYMid meet">
<metadata>
Created by potrace 1.14, written by Peter Selinger 2001-2017
</metadata>
<g transform="translate(0.000000,1024.000000) scale(0.100000,-0.100000)"
fill="#000000" stroke="none">
<path d="M0 9996 l0 -244 38 4 c78 10 140 -71 113 -149 -18 -50 -93 -87 -133
-66 -16 9 -18 4 -18 -56 0 -58 2 -66 18 -61 9 2 62 11 117 20 55 8 161 25 235
36 230 36 500 79 620 100 63 11 176 29 250 40 215 30 444 65 740 114 151 25
390 64 530 86 140 22 320 51 400 65 206 35 883 145 1295 210 561 89 850 137
854 141 2 2 -1135 4 -2527 4 l-2532 0 0 -244z m1658 -40 c7 -18 23 -46 37 -62
33 -38 31 -48 -5 -40 -26 5 -30 2 -30 -15 0 -20 -2 -19 -31 6 -37 31 -61 29
-69 -4 -3 -14 -11 -26 -19 -29 -10 -3 -12 12 -7 73 3 43 7 80 10 82 2 3 13 0
24 -6 24 -13 48 -6 56 15 9 23 21 16 34 -20z m-273 -66 c3 -5 1 -10 -4 -10 -6
0 -11 5 -11 10 0 6 2 10 4 10 3 0 8 -4 11 -10z m2 -62 c-3 -7 -5 -2 -5 12 0
14 2 19 5 13 2 -7 2 -19 0 -25z m-439 -32 c33 -34 41 -67 20 -83 -19 -15 -58
-23 -58 -12 0 5 -10 13 -22 18 -17 6 -26 3 -41 -15 -10 -13 -23 -21 -30 -18
-7 2 -33 0 -59 -5 -36 -6 -52 -5 -68 6 -18 12 -21 12 -26 -1 -6 -17 -49 -22
-58 -8 -3 5 -8 31 -12 60 -6 48 -5 52 19 63 14 6 34 8 44 4 27 -12 92 -14 99
-4 3 5 27 9 54 9 27 0 52 5 55 10 12 20 51 9 83 -24z m302 14 c0 -5 -4 -10
-10 -10 -5 0 -10 5 -10 10 0 6 5 10 10 10 6 0 10 -4 10 -10z m68 -2 c-6 -18
-28 -21 -28 -4 0 9 7 16 16 16 9 0 14 -5 12 -12z m-767 -45 c39 -50 47 -100
16 -105 -22 -2 -32 -5 -50 -13 -10 -4 -21 -5 -24 -1 -3 3 -11 2 -17 -3 -6 -5
-36 -11 -66 -14 -31 -4 -64 -9 -73 -13 -9 -3 -24 -1 -32 6 -13 10 -19 10 -33
-4 -37 -32 -52 -12 -52 71 0 32 5 45 19 53 25 13 27 13 46 -7 12 -11 19 -13
24 -5 3 6 28 13 54 15 26 2 50 7 54 11 3 3 20 6 37 6 17 0 38 5 46 10 22 14
35 12 51 -7z"/>
<path d="M7860 10233 c-116 -19 -935 -153 -1125 -184 -475 -77 -608 -99 -1135
-189 -1416 -242 -1485 -254 -3285 -550 -297 -49 -691 -114 -875 -144 -184 -30
-429 -71 -545 -90 -312 -53 -881 -146 -888 -146 -4 0 -7 -47 -7 -104 l0 -105
31 9 c45 13 95 -10 116 -54 14 -31 15 -41 3 -75 -15 -45 -41 -61 -105 -61
l-45 0 0 -209 c0 -201 1 -210 20 -216 11 -3 20 -14 20 -22 0 -9 7 -24 16 -34
13 -15 13 -21 1 -50 -8 -19 -24 -43 -36 -53 -19 -18 -21 -29 -21 -144 l0 -124
33 6 c17 4 97 18 176 32 79 13 147 27 151 29 4 2 87 18 186 35 228 39 401 70
689 126 127 24 282 53 345 63 63 11 149 26 190 35 41 8 118 22 170 31 106 18
407 74 605 112 109 20 265 48 325 58 25 4 90 16 220 40 69 13 190 36 270 51
80 14 154 28 165 30 11 3 65 11 120 20 55 8 170 28 255 44 323 62 609 112 710
126 58 8 137 22 175 31 96 23 174 32 169 18 -4 -10 33 -11 116 -5 30 2 25 4
-30 16 -52 11 -56 12 -18 9 25 -2 48 -1 50 3 2 4 32 5 68 2 63 -4 63 -4 21
-10 -28 -3 -46 -11 -48 -20 -4 -13 -3 -13 6 0 9 12 13 12 19 2 7 -10 33 -14
130 -21 6 -1 12 -8 12 -16 0 -19 75 -21 84 -2 5 10 7 10 12 0 8 -17 32 -16 50
1 18 19 18 46 -1 46 -8 0 -15 -7 -15 -16 0 -11 -5 -14 -16 -10 -9 3 -20 6 -25
6 -5 0 -9 5 -9 10 0 6 9 10 21 10 11 0 28 7 36 16 12 12 18 13 24 3 6 -10 11
-10 23 0 11 9 20 10 29 4 15 -12 107 -5 107 8 0 14 26 10 40 -6 17 -20 40 -19
41 3 0 13 3 11 10 -6 5 -13 13 -20 19 -17 14 9 13 32 -2 38 -7 2 -10 7 -6 11
8 10 48 -25 48 -41 0 -8 8 -5 20 7 11 11 32 20 46 20 17 0 24 4 21 13 -3 9 6
11 35 8 27 -2 43 1 49 10 6 11 11 11 21 1 6 -6 22 -12 35 -12 14 0 23 -6 23
-15 0 -11 11 -15 40 -15 31 0 40 4 40 18 0 19 41 22 115 8 26 -5 40 -4 46 5 6
10 13 10 31 2 14 -6 46 -9 72 -6 34 4 50 2 56 -7 7 -11 26 -11 104 -2 143 18
136 20 136 -34 l0 -47 63 8 c34 5 76 8 94 7 17 0 34 5 36 12 4 10 26 12 79 10
l73 -3 0 -43 c1 -52 -6 -68 -17 -42 -8 18 -8 18 -5 -1 1 -11 8 -21 15 -21 6
-1 17 -2 22 -3 6 0 10 -6 10 -12 0 -6 -7 -8 -16 -5 -14 5 -15 4 -5 -8 9 -11 9
-15 -1 -19 -8 -4 -7 -6 5 -6 9 -1 17 -5 17 -10 0 -4 -10 -8 -22 -7 -23 1 -25
-2 -27 -54 -1 -24 -6 -30 -22 -30 -20 0 -21 4 -17 45 3 25 2 45 -2 45 -5 0
-17 3 -27 6 -15 5 -15 4 -3 -5 9 -6 10 -11 3 -11 -8 0 -9 -10 -1 -36 7 -25 6
-40 -1 -47 -22 -22 -9 -27 70 -27 l81 0 -4 -67 -3 -68 80 6 c44 4 82 5 84 3 2
-2 -3 -4 -11 -4 -12 0 -17 -17 -22 -70 -4 -39 -4 -80 0 -93 7 -22 6 -22 -14
-3 -12 10 -23 34 -25 55 -2 22 -4 13 -4 -21 0 -42 4 -58 14 -58 7 0 13 -11 13
-24 0 -13 3 -33 6 -43 4 -14 4 -15 -4 -4 -8 11 -12 10 -21 -7 -6 -11 -8 -27
-5 -35 3 -8 -13 -42 -35 -75 -23 -34 -41 -68 -41 -76 0 -8 -4 -17 -9 -20 -5
-3 -12 -22 -15 -41 -5 -27 -12 -35 -29 -36 -21 0 -21 -1 -2 -9 11 -5 14 -9 8
-9 -7 -1 -13 -10 -13 -22 0 -11 -3 -18 -7 -16 -5 3 -9 -6 -10 -20 0 -14 -5
-28 -10 -32 -6 -3 -13 -19 -17 -36 -11 -50 -28 -85 -37 -79 -5 3 -9 -3 -10
-13 0 -10 -3 -13 -6 -5 -2 6 -11 12 -18 12 -7 0 -15 7 -18 14 -4 10 -1 13 9 9
7 -3 14 0 14 7 0 6 -8 10 -17 8 -10 -2 -17 -10 -15 -16 1 -8 -6 -10 -23 -6
-17 4 -25 2 -25 -7 0 -9 -3 -10 -8 -3 -4 6 -22 16 -41 22 -30 11 -32 10 -20
-5 13 -14 12 -15 -6 -6 -11 6 -38 19 -60 29 -22 10 -42 21 -45 24 -3 3 -21 11
-40 17 -19 6 -60 21 -90 33 -30 12 -65 24 -77 27 -13 3 -21 9 -18 13 3 5 -4 6
-15 3 -11 -3 -20 0 -20 6 0 6 -9 11 -19 11 -11 0 -26 7 -34 14 -8 8 -23 15
-33 15 -38 0 -123 24 -118 33 3 5 -5 6 -20 2 -14 -3 -26 -2 -26 3 0 4 -30 10
-67 11 -37 2 -70 7 -73 10 -3 4 -17 13 -32 21 -15 8 -25 19 -21 24 3 6 1 7 -4
4 -6 -4 -38 6 -71 23 -161 80 -268 109 -434 117 -236 11 -430 -39 -628 -162
-64 -40 -113 -61 -195 -84 -253 -72 -583 -215 -790 -341 -359 -221 -636 -465
-914 -805 -153 -188 -409 -626 -480 -820 -12 -33 -26 -69 -31 -80 -30 -62
-167 -487 -175 -543 -4 -29 -11 -54 -16 -58 -5 -3 -9 0 -9 6 0 6 -3 9 -7 7 -5
-3 -21 1 -38 7 -30 13 -30 13 -7 20 29 10 62 82 62 134 0 21 -11 54 -25 77
-26 42 -133 155 -147 155 -4 0 -8 6 -8 14 0 7 -12 16 -27 19 -39 8 -146 114
-177 175 -32 64 -35 131 -6 178 28 45 9 52 -28 9 -77 -87 -46 -203 89 -329
119 -110 151 -171 115 -218 -20 -28 -26 -22 -26 27 0 69 -17 92 -121 166 -144
102 -203 189 -198 291 4 66 -11 71 -48 16 -48 -70 -58 -106 -58 -203 0 -80 3
-97 32 -157 17 -37 42 -79 55 -93 66 -72 87 -92 93 -87 3 4 3 -1 0 -10 -4 -11
2 -22 19 -33 14 -10 26 -24 26 -31 0 -8 5 -14 11 -14 7 0 9 -9 6 -21 -3 -12
-3 -18 0 -15 12 12 33 -25 33 -60 0 -33 -2 -35 -17 -23 -15 13 -15 12 -4 -9 7
-13 10 -26 7 -30 -3 -3 -6 0 -6 6 0 7 -5 12 -11 12 -5 0 -7 -5 -3 -11 4 -8 0
-9 -15 -4 -12 4 -21 2 -21 -4 0 -18 -14 -12 -29 10 -11 18 -11 23 1 31 10 8
10 9 -2 5 -21 -6 -46 27 -70 92 -11 31 -26 67 -33 81 -16 32 -110 130 -125
130 -17 0 -15 -25 3 -40 8 -7 15 -18 15 -25 0 -8 5 -15 11 -17 7 -2 15 -51 19
-131 4 -70 13 -134 19 -141 7 -8 11 -18 9 -22 -1 -5 3 -19 10 -31 12 -22 7
-53 -9 -53 -13 0 -11 18 3 22 9 3 9 8 -1 19 -6 8 -21 29 -31 47 -24 40 -44 41
-60 2 -12 -29 -15 -30 -75 -30 -47 0 -64 -4 -69 -15 -7 -19 -26 -19 -26 0 0
13 -20 15 -120 15 -96 0 -120 -3 -120 -14 0 -20 -178 -28 -201 -9 -19 15 -39
17 -39 3 0 -6 -47 -10 -120 -10 -103 0 -120 -2 -120 -16 0 -14 17 -15 133 -14
72 1 144 2 160 1 43 -2 31 -21 -13 -21 -22 0 -40 -4 -40 -10 0 -6 -73 -10
-200 -10 -193 0 -200 -1 -200 -20 0 -17 -7 -20 -40 -20 -22 0 -40 -4 -40 -10
0 -13 -167 -13 -175 0 -3 6 -1 10 4 10 6 0 11 7 11 15 0 11 -11 15 -41 15 -39
0 -41 1 -37 28 4 26 3 27 -39 23 l-43 -3 0 -1004 c0 -870 2 -1009 15 -1041 18
-44 18 -43 0 -43 -12 0 -15 -20 -15 -119 0 -66 5 -132 10 -147 8 -19 8 -30 0
-38 -6 -6 -10 -136 -10 -376 l0 -365 37 0 c31 0 40 -5 51 -28 19 -40 10 -55
-42 -62 l-46 -7 0 -149 c0 -148 0 -149 23 -150 l22 0 -22 -11 -23 -11 0 -436
c1 -367 3 -432 14 -412 8 14 16 19 20 13 9 -15 -4 -42 -20 -42 -11 0 -14 -34
-14 -186 l0 -186 78 6 c42 2 82 4 87 4 6 -1 1094 -3 2419 -5 l2408 -3 237 61
c130 33 238 62 241 64 3 2 48 15 100 29 141 37 899 245 1175 321 268 74 1015
278 1685 460 69 19 233 64 365 100 132 37 305 84 385 105 162 43 397 107 665
180 99 28 227 63 285 78 l105 29 3 4406 2 4407 -1177 -1 c-648 -1 -1189 -4
-1203 -6z m2264 -395 c5 -15 7 -31 3 -34 -12 -12 -57 15 -57 34 0 42 39 41 54
0z m64 -13 c-8 -19 -8 -28 2 -40 10 -13 9 -15 -8 -15 -12 0 -27 10 -33 22 -10
18 -8 24 11 40 31 25 42 23 28 -7z m-65 -49 c10 -25 -15 -34 -43 -16 -13 9
-13 11 0 20 21 14 37 12 43 -4z m-812 -80 c12 -13 12 -76 -1 -76 -9 0 -12 10
-26 78 -3 13 -1 28 3 35 5 8 9 6 11 -8 2 -11 8 -24 13 -29z m233 25 c19 -21
18 -62 -1 -69 -7 -2 -13 4 -13 15 0 10 -9 24 -20 31 -18 11 -20 10 -20 -18 0
-20 -5 -30 -15 -30 -10 0 -15 10 -15 28 0 35 -9 45 -26 32 -9 -8 -9 -18 -1
-40 6 -16 8 -32 4 -36 -10 -11 -34 14 -41 42 -10 39 11 57 56 51 21 -3 41 -1
44 4 9 15 30 10 48 -10z m-171 -44 c2 -23 1 -46 -4 -51 -9 -10 -39 45 -39 72
0 51 37 33 43 -21z m-213 19 c0 -7 3 -34 6 -60 6 -38 4 -46 -10 -46 -13 0 -16
11 -16 60 0 33 4 60 10 60 6 0 10 -6 10 -14z m106 -39 c10 -40 10 -47 -2 -47
-16 0 -20 8 -28 63 -7 55 15 43 30 -16z m-52 2 c7 -41 2 -59 -15 -59 -5 0 -9
23 -9 50 0 60 15 66 24 9z m-3080 15 c3 -9 5 -30 5 -47 -1 -30 -2 -29 -12 11
-12 51 -33 50 -29 -1 2 -22 -1 -37 -7 -37 -6 0 -11 14 -11 30 0 19 -5 30 -14
30 -11 0 -13 -9 -9 -35 4 -23 2 -35 -6 -35 -6 0 -11 14 -11 30 0 23 -4 30 -20
30 -16 0 -20 -7 -20 -35 0 -19 -5 -35 -11 -35 -8 0 -9 13 -5 42 9 55 14 61 47
54 15 -3 31 -1 34 4 10 16 62 12 69 -6z m2836 -13 c0 -4 22 -8 50 -7 27 1 50
4 50 9 0 4 11 7 24 7 30 0 44 -47 24 -79 -19 -31 -42 -22 -48 19 l-5 34 -13
-28 c-10 -22 -16 -26 -24 -18 -9 9 -9 15 0 24 16 16 15 28 -2 28 -8 0 -18 -9
-21 -20 -7 -23 10 -50 32 -50 16 0 13 -22 -3 -27 -19 -6 -64 38 -64 63 0 14
-7 27 -15 31 -21 8 -23 3 -18 -34 4 -23 11 -33 27 -36 20 -3 19 -4 -7 -17 -15
-7 -30 -10 -34 -7 -3 4 -8 32 -11 62 l-4 55 31 0 c17 0 31 -4 31 -9z m-3004
-26 c11 -43 -41 -98 -61 -65 -4 6 -16 3 -32 -10 -23 -18 -27 -18 -53 -5 -26
14 -28 18 -20 47 6 17 15 35 22 40 18 11 48 10 48 -2 0 -5 -9 -10 -19 -10 -19
0 -31 -18 -31 -46 0 -18 46 -19 57 -1 4 6 9 21 10 32 6 38 12 45 42 45 24 0
32 -5 37 -25z m-412 -95 c4 -44 3 -71 -2 -65 -5 6 -12 44 -16 85 -4 44 -3 71
2 65 5 -6 12 -44 16 -85z m186 50 c0 -18 6 -33 15 -36 22 -9 18 -24 -5 -24
-14 0 -20 7 -22 23 0 12 -1 29 -2 37 -1 8 -8 15 -16 15 -10 0 -16 -13 -18 -42
-2 -29 -8 -43 -18 -43 -10 0 -13 12 -13 43 2 55 4 57 45 57 31 0 34 -2 34 -30z
m-236 -62 c4 -34 2 -59 -4 -63 -6 -3 -10 4 -10 17 0 13 -3 48 -6 78 -3 36 -2
50 4 40 5 -8 12 -41 16 -72z m134 44 c4 -40 -13 -64 -42 -60 -25 4 -31 33 -16
72 7 20 16 27 33 24 17 -2 23 -11 25 -36z m-194 -1 c4 -5 8 -31 11 -58 4 -35
3 -42 -4 -28 -5 11 -10 33 -10 48 -1 45 -25 27 -32 -24 -5 -40 -6 -41 -13 -18
-4 15 -6 35 -4 45 2 12 -3 19 -12 19 -11 0 -16 -13 -18 -47 -4 -59 -22 -64
-22 -5 0 46 7 61 30 70 24 9 68 8 74 -2z m-214 -50 c0 -27 3 -57 7 -67 4 -12
2 -15 -8 -12 -17 6 -26 128 -9 128 5 0 10 -22 10 -49z m92 -6 c-4 -44 -23 -66
-52 -58 -16 4 -20 14 -20 44 0 41 19 61 55 56 17 -2 19 -8 17 -42z m3132 39
c24 -9 20 -44 -4 -44 -31 0 -24 -20 8 -21 26 0 26 -1 5 -11 -32 -15 -50 -4
-56 34 -7 47 5 58 47 42z m-190 -19 c-4 -11 -2 -13 9 -9 22 8 32 -33 16 -63
-15 -28 -52 -28 -57 0 -7 33 8 87 23 87 9 0 12 -6 9 -15z m128 -37 c5 -69 2
-78 -33 -78 -32 0 -46 19 -49 65 -3 45 -1 55 11 55 6 0 8 -9 3 -22 -6 -20 -5
-21 10 -9 9 7 16 20 16 27 0 8 9 14 19 14 16 0 20 -9 23 -52z m-3221 32 c28
-16 26 -75 -3 -91 -20 -10 -21 -10 -11 2 21 26 20 79 -2 79 -11 0 -15 -13 -15
-54 0 -30 -4 -58 -10 -61 -6 -4 -10 15 -10 49 0 84 9 98 51 76z m2927 -37 c-1
-21 1 -48 6 -60 10 -32 -11 -30 -26 2 -16 35 -38 32 -38 -5 0 -32 -14 -40 -24
-14 -10 26 -7 104 4 104 6 0 10 -11 10 -25 0 -18 5 -25 20 -25 14 0 20 7 20
23 0 13 3 27 7 30 15 16 23 5 21 -30z m-3104 -45 l-8 -53 -6 50 c-8 56 -3 82
12 67 6 -6 7 -31 2 -64z m96 15 c0 -41 -3 -54 -10 -43 -5 8 -10 30 -10 48 0
22 -5 32 -15 32 -11 0 -15 -13 -16 -52 -1 -42 -3 -48 -9 -28 -13 39 -11 88 3
93 6 3 22 6 35 6 20 1 22 -3 22 -56z m3125 26 c8 -24 -28 -69 -55 -69 -22 0
-40 20 -40 45 0 30 19 45 56 45 24 0 34 -5 39 -21z m-3264 -41 c-3 -39 -6 -48
-12 -33 -4 11 -8 30 -8 43 -1 13 -7 22 -16 22 -11 0 -15 -12 -16 -47 0 -49 -4
-46 -27 24 -11 34 -13 33 68 41 12 2 14 -8 11 -50z m-104 -23 l2 -50 -10 43
c-14 57 -27 54 -23 -5 l4 -48 -14 35 c-7 19 -11 38 -9 43 2 4 -3 7 -11 7 -12
0 -16 -10 -16 -40 0 -25 -5 -40 -12 -40 -9 0 -13 17 -13 50 0 47 1 49 30 53
66 9 70 6 72 -48z m-119 7 c2 -13 -4 -32 -13 -42 -13 -14 -13 -19 -3 -23 9 -4
9 -6 -2 -6 -9 -1 -21 4 -28 11 -14 14 -16 48 -2 48 5 0 7 -7 4 -15 -5 -11 -2
-13 10 -9 24 9 20 44 -5 44 -12 0 -17 4 -14 11 12 19 50 5 53 -19z m-350 -63
l-3 -64 -33 -3 c-27 -3 -34 1 -42 24 -12 31 9 73 41 81 11 3 19 14 19 26 0 15
3 18 11 10 5 -5 9 -38 7 -74z m272 30 c0 -31 -4 -48 -10 -44 -5 3 -10 22 -10
41 0 19 -4 34 -10 34 -5 0 -10 -19 -10 -42 0 -49 -15 -40 -23 14 -5 32 -3 37
16 41 46 9 47 8 47 -44z m-78 24 c2 -5 1 -28 -2 -53 -6 -44 -6 -45 -13 -14 -5
17 -7 35 -5 40 3 9 -4 14 -22 14 -5 0 -10 -20 -10 -45 0 -25 -4 -45 -10 -45
-5 0 -10 18 -10 39 0 22 -3 46 -6 55 -5 13 2 16 34 16 23 0 42 -3 44 -7z m-92
-38 c0 -21 -5 -25 -31 -25 -20 0 -29 -4 -27 -12 6 -18 39 -22 49 -6 7 10 9 9
9 -4 0 -19 -41 -35 -59 -23 -12 7 -15 78 -4 88 3 4 19 7 35 7 23 0 28 -4 28
-25z m3030 -9 c0 -6 3 -21 6 -33 5 -18 0 -25 -21 -35 -32 -14 -48 2 -38 40 5
20 2 23 -13 20 -14 -2 -20 -13 -22 -41 -4 -43 -22 -51 -22 -9 0 15 -3 36 -6
48 -5 19 -1 21 55 21 39 0 61 -4 61 -11z m-3241 -5 c9 -6 12 -18 7 -37 -15
-58 -45 -70 -72 -29 -15 23 -15 27 0 50 17 26 40 31 65 16z m3101 -10 c0 -5 3
-22 6 -39 6 -28 3 -31 -27 -37 -25 -6 -35 -3 -45 10 -18 25 11 75 43 75 13 0
23 -4 23 -9z m-3240 -26 c0 -7 6 -15 13 -18 9 -3 8 -9 -5 -22 -9 -10 -23 -15
-31 -12 -21 8 -27 45 -10 62 16 17 33 12 33 -10z m3150 -12 c-9 -21 -19 -45
-22 -53 -3 -10 -12 -3 -29 22 -33 51 -52 50 -47 -2 2 -28 0 -40 -9 -40 -17 0
-17 72 -1 88 20 20 47 13 62 -15 l15 -28 11 33 c7 17 18 32 25 32 10 0 9 -9
-5 -37z m-250 -38 c2 -66 1 -73 -9 -55 -5 8 -10 35 -11 60 -3 61 -2 66 9 55 5
-6 10 -32 11 -60z m58 34 c-24 -14 -23 -32 1 -24 11 3 22 2 25 -4 7 -11 -22
-23 -36 -15 -6 4 -9 1 -6 -7 3 -9 17 -13 39 -12 l34 2 -33 -15 c-41 -18 -62
-6 -62 35 0 30 16 51 40 51 12 -1 12 -2 -2 -11z m60 -12 c5 -23 -10 -21 -26 4
-12 18 -11 20 5 17 10 -2 19 -11 21 -21z m-3183 -8 c10 -30 -18 -57 -39 -39
-19 15 -20 32 -4 48 18 18 36 14 43 -9z m-191 -7 c3 -5 8 -28 12 -50 8 -52 -9
-56 -22 -5 -14 55 -34 54 -34 -2 0 -28 -4 -44 -10 -40 -5 3 -10 22 -10 41 0
28 -4 35 -17 32 -13 -2 -19 -15 -21 -46 -2 -23 -8 -42 -13 -42 -6 0 -9 22 -7
52 3 46 6 53 28 59 36 10 88 10 94 1z m-270 -33 c14 -69 3 -129 -24 -129 -7 0
-6 67 2 75 3 3 4 24 1 46 -7 47 12 54 21 8z m116 -29 c0 -46 -3 -51 -27 -61
-39 -15 -57 0 -61 49 -3 39 -1 42 30 51 56 16 58 15 58 -39z m-200 -10 c6 -12
10 -38 8 -58 l-4 -37 -7 30 c-4 17 -14 42 -22 58 -12 23 -12 27 0 27 8 0 19
-9 25 -20z m2996 -100 c-6 -27 -26 40 -25 83 l1 42 14 -55 c8 -30 12 -62 10
-70z m-3042 94 c9 -24 7 -84 -3 -84 -5 0 -11 18 -15 40 -7 45 -26 46 -26 2 0
-15 -5 -34 -10 -42 -7 -11 -10 -4 -10 27 0 23 -3 48 -6 57 -5 13 1 16 29 16
23 0 37 -6 41 -16z m-322 -53 c-2 -32 0 -61 4 -64 5 -3 20 3 32 14 18 14 24
30 25 64 1 28 7 45 15 45 8 0 12 -19 12 -64 0 -62 -1 -64 -29 -69 -16 -3 -40
-9 -55 -13 -25 -6 -26 -4 -26 36 0 25 -4 39 -10 35 -5 -3 -10 -20 -10 -36 0
-22 -6 -32 -26 -39 -36 -14 -42 -13 -49 10 -9 29 3 60 20 53 10 -3 13 -13 9
-30 -5 -19 -3 -24 7 -21 8 3 14 18 14 34 0 23 -5 30 -23 32 -36 5 -15 22 29
22 31 0 39 4 39 18 0 19 8 32 20 32 3 0 4 -26 2 -59z m226 47 c18 -18 14 -63
-8 -83 -26 -24 -68 -13 -76 20 -13 52 49 98 84 63z m3187 -8 c-33 -22 -45 -25
-45 -12 0 11 39 30 60 31 8 1 2 -8 -15 -19z m-90 -38 c-1 -47 -18 -54 -25 -10
-3 21 -8 28 -13 21 -4 -7 -5 -24 -1 -39 5 -17 3 -25 -3 -21 -19 12 -21 67 -4
77 33 19 46 12 46 -28z m-3275 14 c0 -16 -28 -42 -36 -33 -7 6 18 47 28 47 5
0 8 -6 8 -14z m3198 -19 c17 -36 10 -55 -24 -63 -33 -8 -55 15 -46 49 13 54
48 61 70 14z m197 13 c8 -25 1 -36 -25 -43 -29 -7 -37 19 -14 43 24 24 31 24
39 0z m-3677 -62 c-2 -60 -6 -73 -20 -76 -13 -2 -18 3 -18 17 0 12 -5 21 -11
21 -6 0 -8 -8 -4 -19 3 -11 1 -22 -4 -26 -17 -10 -51 14 -53 38 0 12 -4 0 -7
-27 -9 -76 -31 -72 -25 5 5 73 19 88 82 89 28 0 41 4 37 10 -9 14 1 40 15 40
7 0 10 -26 8 -72z m3396 40 c-4 -13 -7 -31 -5 -40 1 -9 -7 -21 -17 -27 -27
-14 -55 17 -50 56 2 23 8 28 30 28 15 1 30 4 34 8 12 12 16 0 8 -25z m-244 2
c-9 -5 -9 -9 -1 -14 6 -4 11 -28 11 -54 0 -60 -16 -43 -23 24 -6 53 -2 68 15
57 6 -3 5 -8 -2 -13z m-3300 0 c0 -5 -4 -10 -10 -10 -5 0 -10 5 -10 10 0 6 5
10 10 10 6 0 10 -4 10 -10z m255 -27 c-10 -58 -13 -63 -41 -73 -19 -7 -31 -7
-40 1 -19 15 -18 64 2 83 17 18 39 22 29 6 -3 -5 3 -10 14 -10 12 0 21 7 21
15 0 8 5 15 10 15 7 0 9 -14 5 -37z m3205 -4 c0 -24 -4 -38 -10 -34 -5 3 -10
22 -10 41 0 19 5 34 10 34 6 0 10 -18 10 -41z m-42 -16 c2 -24 -1 -43 -7 -43
-12 0 -26 39 -22 64 2 11 -2 17 -11 14 -7 -3 -14 -23 -16 -46 -4 -56 -22 -54
-22 2 0 47 9 56 50 53 22 -2 25 -7 28 -44z m-2908 17 c0 -11 -7 -20 -15 -20
-8 0 -15 9 -15 20 0 11 7 20 15 20 8 0 15 -9 15 -20z m-1407 -32 c48 -27 103
-102 113 -156 15 -78 -34 -174 -112 -220 -54 -32 -166 -27 -219 9 -141 95
-119 304 40 381 50 24 119 18 178 -14z m890 -10 c-8 -46 -13 -48 -13 -5 0 21
4 37 10 37 5 0 7 -14 3 -32z m-65 -23 c0 -25 -5 -45 -10 -45 -4 0 -8 6 -9 13
0 6 -4 2 -9 -10 -9 -23 -30 -32 -30 -13 0 6 -6 10 -14 10 -8 0 -17 8 -20 18
-3 11 -5 8 -4 -8 1 -44 -2 -46 -27 -15 -25 31 -24 31 -40 -20 -2 -8 -14 -15
-26 -15 -18 0 -20 5 -16 26 3 19 2 23 -7 14 -6 -6 -11 -18 -11 -27 0 -25 -21
-26 -44 -2 -22 24 -20 26 -38 -31 -3 -11 -9 -9 -24 10 l-19 25 -6 -22 c-10
-35 -37 -27 -58 17 -14 29 -16 44 -9 51 8 8 15 5 25 -10 15 -25 28 -27 28 -6
0 24 29 30 45 9 13 -18 14 -18 15 -1 0 11 8 17 24 17 15 0 26 -7 29 -17 3 -10
5 -3 6 15 1 36 7 39 33 15 11 -9 18 -11 18 -5 0 7 9 12 19 12 11 0 23 5 26 11
4 6 25 8 50 5 28 -3 45 0 48 7 3 7 9 1 15 -13 l11 -25 0 28 c1 17 6 27 16 27
12 0 15 -11 13 -45z m44 -57 c-15 -15 -26 -4 -18 18 5 13 9 15 18 6 9 -9 9
-15 0 -24z m2756 19 c6 -6 13 -24 17 -39 5 -20 2 -29 -13 -37 -12 -6 -25 -11
-31 -11 -16 0 -41 30 -41 50 0 38 46 63 68 37z m-94 -14 c-4 -10 -7 -33 -7
-50 1 -18 -3 -33 -8 -33 -5 0 -9 23 -9 50 0 39 3 50 16 50 12 0 14 -5 8 -17z
m-174 -12 c0 -11 5 -23 10 -26 6 -3 10 -20 10 -36 0 -22 -7 -32 -26 -41 -23
-11 -28 -10 -40 7 -25 37 -57 63 -70 58 -9 -3 -14 -21 -14 -49 0 -24 -4 -44
-10 -44 -5 0 -10 18 -10 40 0 22 -5 40 -11 40 -5 0 -8 4 -5 9 9 14 89 23 96
10 5 -7 16 -1 31 20 26 36 39 39 39 12z m114 3 c23 -9 19 -53 -6 -75 -34 -27
-54 -23 -67 12 -14 39 -14 35 5 53 16 17 41 20 68 10z m-306 -56 c20 -20 15
-76 -7 -88 -25 -13 -27 -13 -45 6 -25 24 -21 73 7 84 30 12 31 12 45 -2z
m-275 -80 c3 -33 2 -58 -4 -58 -5 0 -9 8 -9 19 0 10 -3 40 -6 67 -5 33 -3 46
3 39 6 -5 13 -36 16 -67z m187 53 c-5 -11 -10 -34 -10 -51 0 -18 -4 -29 -10
-25 -5 3 -10 26 -10 51 0 38 3 44 20 44 17 0 19 -3 10 -19z m204 -3 c8 -33 -9
-43 -27 -15 -9 14 -13 27 -10 31 13 13 31 5 37 -16z m-291 -5 c3 -5 8 -23 12
-40 6 -30 4 -34 -22 -44 -31 -12 -52 -3 -63 26 -13 35 6 65 39 65 16 0 32 -3
34 -7z m-151 -55 c6 -50 3 -54 -39 -63 -26 -5 -32 -3 -38 15 -10 32 3 70 28
80 38 15 45 11 49 -32z m-302 7 c11 -13 8 -15 -13 -15 -14 0 -29 -4 -32 -10
-3 -5 1 -10 9 -10 9 0 16 -4 16 -10 0 -5 9 -10 21 -10 16 0 19 -4 13 -22 -9
-33 -24 -48 -45 -48 -30 0 -32 19 -2 32 27 11 27 12 5 16 -13 2 -28 15 -35 29
-10 22 -8 28 12 44 28 23 35 23 51 4z m190 -34 c0 -44 -2 -49 -26 -54 -14 -2
-31 2 -39 10 -13 12 -13 18 1 46 34 65 64 64 64 -2z m-3639 10 c59 -59 26
-171 -55 -187 -92 -17 -162 98 -105 170 43 55 115 62 160 17z m333 -3 c22 -31
0 -54 -40 -44 -20 5 -24 10 -15 15 10 7 11 10 1 16 -10 6 -9 11 5 22 25 18 31
17 49 -9z m3221 -15 c-10 -61 -13 -65 -42 -61 -24 3 -29 9 -34 41 -7 43 6 56
54 57 27 0 28 -2 22 -37z m-3939 -35 c44 -21 58 -89 28 -136 -32 -50 -106 -48
-140 4 -23 35 -13 103 21 131 27 24 45 24 91 1z m5483 -32 c-2 -2 -17 -6 -34
-10 -22 -5 -26 -4 -15 4 14 9 59 15 49 6z m-2359 -66 c3 -25 9 -51 13 -57 6
-9 2 -13 -11 -13 -23 0 -28 10 -37 75 -7 42 -6 47 11 43 14 -2 20 -15 24 -48z
m98 32 c-2 -11 4 -27 12 -37 13 -15 12 -19 -9 -36 -13 -11 -34 -19 -47 -19
-19 0 -24 5 -24 25 0 22 3 24 25 15 28 -11 32 -5 11 16 -8 8 -22 11 -30 8 -22
-9 -21 22 2 35 30 18 64 13 60 -7z m-151 -55 c2 -33 -2 -49 -12 -53 -27 -11
-50 -11 -62 -2 -8 6 -22 2 -43 -13 -38 -29 -63 -18 -68 29 -7 68 39 95 77 45
19 -27 20 -27 21 -6 0 14 11 28 28 37 44 25 57 17 59 -37z m2521 21 c-2 -5 -8
-9 -13 -9 -5 0 -11 4 -13 9 -1 5 4 9 13 9 9 0 14 -4 13 -9z m-527 -15 c-18 -8
-41 -12 -50 -10 -10 3 -8 5 7 6 13 0 21 4 19 9 -3 4 9 7 26 8 l32 1 -34 -14z
m86 11 c-3 -3 -12 -4 -19 -1 -8 3 -5 6 6 6 11 1 17 -2 13 -5z m-2283 -64 l1
-55 -37 -3 -38 -3 0 48 c0 55 14 75 49 71 21 -3 23 -8 25 -58z m2033 54 c-3
-3 -12 -4 -19 -1 -8 3 -5 6 6 6 11 1 17 -2 13 -5z m231 -13 c11 -6 10 -10 -4
-15 -9 -3 -19 -4 -22 -1 -3 3 1 5 9 5 11 0 11 2 -1 10 -8 5 -10 10 -5 10 6 0
16 -4 23 -9z m-2460 -19 c16 -17 18 -17 33 3 14 16 22 18 45 10 33 -12 43 -45
23 -81 -21 -40 -89 -22 -89 24 0 12 -8 8 -30 -13 -16 -16 -30 -34 -30 -41 0
-17 -20 -28 -30 -18 -5 5 -12 37 -16 72 l-7 62 42 0 c26 0 47 -6 59 -18z
m2529 2 c-3 -3 -12 -4 -19 -1 -8 3 -5 6 6 6 11 1 17 -2 13 -5z m1383 2 c0 -2
-9 -6 -20 -9 -11 -3 -20 -1 -20 4 0 5 9 9 20 9 11 0 20 -2 20 -4z m80 -7 c0
-5 -4 -8 -9 -5 -5 4 -12 0 -14 -6 -3 -8 -6 -6 -6 5 -1 9 6 17 14 17 8 0 15 -5
15 -11z m65 -6 c-2 -10 -4 -21 -4 -25 -1 -5 -11 -7 -23 -7 -17 1 -19 2 -5 6
20 5 23 23 5 24 -7 0 -4 4 7 9 11 5 21 9 22 9 1 1 0 -7 -2 -16z m35 13 c0 -3
-4 -8 -10 -11 -5 -3 -10 -1 -10 4 0 6 5 11 10 11 6 0 10 -2 10 -4z m60 -2 c0
-8 -19 -13 -24 -6 -3 5 1 9 9 9 8 0 15 -2 15 -3z m137 -8 c5 -5 2 -6 -6 -1
-11 6 -13 3 -9 -13 8 -27 6 -27 -20 1 l-22 23 24 -1 c14 0 28 -4 33 -9z m-522
-6 c13 -6 15 -9 5 -9 -8 0 -22 4 -30 9 -18 12 -2 12 25 0z m85 -10 c0 -5 -4
-10 -10 -10 -5 0 -10 5 -10 10 0 6 5 10 10 10 6 0 10 -4 10 -10z m336 -9 c-4
-6 -14 -7 -23 -4 -15 6 -14 7 3 13 22 9 29 6 20 -9z m-286 -35 c-7 -9 -19 -16
-27 -16 -23 0 -27 30 -7 45 16 12 21 12 33 0 12 -11 12 -17 1 -29z m254 19
c28 -26 42 -33 31 -15 -3 5 6 17 20 26 23 15 28 15 40 3 17 -17 26 -62 15 -79
-4 -7 -26 -14 -48 -16 -22 -1 -49 -7 -59 -12 -10 -5 -36 -10 -58 -10 -22 -1
-41 -6 -43 -12 -5 -13 -35 -13 -48 0 -12 12 -67 -36 -59 -51 7 -11 -20 -10
-55 1 -25 8 -25 8 -2 9 16 1 21 5 15 14 -4 6 -8 15 -8 19 0 3 -4 10 -9 15 -5
5 -6 2 -1 -7 6 -12 5 -13 -5 -3 -12 11 -11 15 4 26 17 12 17 15 2 29 -14 15
-13 17 14 27 17 5 30 7 31 3 1 -4 4 4 8 18 8 30 45 42 39 13 -2 -10 -10 -17
-16 -15 -17 3 -15 -15 2 -21 8 -3 20 1 26 9 7 8 20 14 30 14 10 0 23 7 30 15
13 16 35 21 26 6 -3 -5 1 -22 9 -37 11 -22 15 -25 15 -10 0 11 7 28 17 38 10
11 12 18 4 18 -6 0 -14 -7 -17 -15 -4 -8 -10 -13 -15 -10 -14 9 2 35 21 35 9
0 29 -11 44 -25z m-366 8 c-10 -2 -28 -2 -40 0 -13 2 -5 4 17 4 22 1 32 -1 23
-4z m-1901 -19 c-3 -3 -12 -4 -19 -1 -8 3 -5 6 6 6 11 1 17 -2 13 -5z m156 -1
c-7 -2 -21 -2 -30 0 -10 3 -4 5 12 5 17 0 24 -2 18 -5z m-3548 -65 c7 -36 54
-320 57 -352 4 -35 33 -26 -312 -91 -233 -43 -372 -66 -376 -62 -5 4 -64 360
-64 382 0 29 -2 28 190 60 85 14 220 39 300 55 184 36 198 36 205 8z m499 -40
c17 -65 -1 -138 -34 -138 -15 0 -23 21 -11 33 6 6 11 37 11 69 0 43 4 58 14
58 7 0 16 -10 20 -22z m220 6 c27 -26 19 -60 -19 -90 -29 -22 -38 -24 -50 -14
-17 14 -20 72 -5 101 13 23 53 25 74 3z m-105 -8 c7 -8 11 -34 9 -58 -3 -43
-3 -43 -46 -46 -38 -3 -43 -1 -53 25 -18 46 11 82 72 92 4 1 12 -5 18 -13z
m4881 -26 c-20 -13 -33 -13 -25 0 3 6 14 10 23 10 15 0 15 -2 2 -10z m20 -20
c0 -5 -9 -10 -20 -10 -14 0 -20 -7 -20 -22 0 -18 -2 -20 -9 -8 -6 8 -7 18 -4
23 4 7 34 22 51 26 1 1 2 -3 2 -9z m37 4 c-3 -3 -12 -4 -19 -1 -8 3 -5 6 6 6
11 1 17 -2 13 -5z m-137 -28 c0 -8 -4 -18 -10 -21 -5 -3 -10 3 -10 14 0 12 5
21 10 21 6 0 10 -6 10 -14z m-37 -68 c-2 -5 -12 -8 -21 -8 -12 0 -17 9 -18 31
l-1 31 22 -24 c12 -13 20 -26 18 -30z m702 42 c-3 -5 -12 -10 -20 -10 -8 0
-17 5 -20 10 -4 6 5 10 20 10 15 0 24 -4 20 -10z m-625 -41 c0 -5 -9 -9 -20
-9 -13 0 -18 5 -14 14 6 15 34 11 34 -5z m40 -13 c0 -3 -4 -8 -10 -11 -5 -3
-10 -1 -10 4 0 6 5 11 10 11 6 0 10 -2 10 -4z m385 -2 c12 -5 14 -9 4 -14 -14
-9 -39 -2 -39 11 0 11 12 11 35 3z m-58 -34 c-2 -11 -9 -26 -17 -33 -9 -8 -11
-8 -6 0 3 6 2 14 -4 18 -6 4 -5 11 3 20 17 20 27 18 24 -5z m-6691 -62 c49
-48 54 -73 23 -112 -16 -20 -29 -26 -59 -26 -30 0 -43 6 -59 26 -26 34 -27 58
-1 84 12 12 25 32 30 45 5 14 12 25 16 25 3 0 25 -19 50 -42z m6364 32 c0 -5
-4 -10 -10 -10 -5 0 -10 5 -10 10 0 6 5 10 10 10 6 0 10 -4 10 -10z m57 -16
c-3 -3 -12 -4 -19 -1 -8 3 -5 6 6 6 11 1 17 -2 13 -5z m219 -6 c5 -7 3 -8 -6
-3 -7 4 -16 2 -20 -5 -4 -7 -13 -9 -20 -5 -9 6 -9 9 1 16 19 12 37 11 45 -3z
m199 -23 c-92 -42 -226 -223 -398 -536 -40 -74 -94 -166 -120 -206 -27 -39
-64 -109 -83 -155 -19 -46 -44 -101 -55 -122 -11 -21 -17 -41 -15 -44 3 -2 24
35 46 83 23 47 44 84 47 81 3 -3 0 -34 -7 -68 -10 -49 -22 -73 -52 -105 -21
-24 -38 -47 -38 -53 0 -5 -6 -10 -13 -10 -16 0 -47 -84 -47 -128 0 -34 -37
-156 -68 -222 -33 -72 -207 -290 -306 -383 -102 -96 -285 -213 -321 -205 -15
3 87 147 177 250 136 156 479 612 522 695 9 18 39 90 67 160 125 314 303 652
421 800 89 112 183 182 243 182 l30 -1 -30 -13z m-465 -5 c0 -5 -7 -10 -15
-10 -8 0 -15 5 -15 10 0 6 7 10 15 10 8 0 15 -4 15 -10z m-6870 -41 c0 -28
-44 -74 -63 -66 -17 7 -23 53 -9 73 25 37 72 33 72 -7z m6980 -9 c0 -5 -4 -10
-10 -10 -5 0 -10 5 -10 10 0 6 5 10 10 10 6 0 10 -4 10 -10z m35 -20 c-6 -9
-9 -9 -16 1 -10 17 0 34 13 21 6 -6 7 -16 3 -22z m-6865 -28 c21 -18 29 -33
25 -43 -6 -15 -10 -15 -44 2 -28 13 -46 16 -67 9 -28 -8 -27 -8 13 -9 33 -1
46 -7 63 -28 11 -15 19 -34 18 -42 -4 -22 -35 -25 -55 -6 -12 12 -25 15 -50
10 -29 -5 -35 -3 -40 14 -3 12 -12 21 -19 21 -23 0 -16 49 11 75 35 36 104 35
145 -3z m6790 8 c0 -5 -4 -10 -10 -10 -5 0 -10 5 -10 10 0 6 5 10 10 10 6 0
10 -4 10 -10z m-17 -51 c-4 -12 0 -25 8 -30 12 -8 12 -11 -1 -19 -25 -16 -30
-12 -30 30 0 28 4 40 14 40 9 0 12 -7 9 -21z m55 4 c-3 -19 -48 -32 -48 -14 0
6 5 11 11 11 5 0 7 5 4 10 -3 6 3 10 15 10 15 0 20 -5 18 -17z m-83 -121 c-15
-16 -16 -15 -4 12 7 15 15 23 17 16 3 -7 -3 -19 -13 -28z m782 -68 c-3 -3 -12
-4 -19 -1 -8 3 -5 6 6 6 11 1 17 -2 13 -5z m-2501 -213 c104 -22 191 -60 231
-104 l28 -31 -38 22 c-21 12 -43 19 -49 16 -6 -4 -8 -3 -5 2 3 6 -6 15 -21 21
-57 23 -67 27 -82 29 -8 1 -35 7 -60 13 -53 12 -246 13 -275 1 -11 -5 -14 -9
-7 -11 93 -14 143 -55 144 -118 0 -22 4 -41 9 -41 15 0 10 -17 -7 -24 -10 -4
-13 -2 -9 7 4 6 -1 3 -9 -7 -10 -12 -14 -28 -10 -40 6 -19 5 -19 -10 -7 -14
12 -16 12 -11 -1 4 -9 -1 -18 -9 -21 -9 -4 -16 -14 -16 -22 0 -12 -6 -15 -20
-10 -12 4 -20 2 -20 -5 0 -6 -4 -9 -8 -6 -5 3 -15 -4 -22 -15 -8 -10 -18 -19
-23 -19 -5 0 -53 -34 -108 -75 -54 -41 -99 -72 -99 -68 -1 5 -10 -3 -21 -16
-15 -18 -23 -21 -31 -13 -9 9 -18 7 -35 -10 -13 -12 -23 -26 -23 -32 1 -6 9
-1 19 11 17 20 20 21 26 6 3 -10 3 -14 -1 -10 -4 3 -15 -3 -25 -15 -11 -11
-19 -16 -19 -10 0 25 -21 11 -26 -18 -4 -16 -10 -27 -15 -24 -10 6 -69 -73
-69 -93 0 -7 -5 -13 -12 -13 -6 0 -9 -3 -5 -6 7 -7 -37 -81 -64 -107 -26 -25
-75 -32 -105 -16 -30 16 -68 74 -60 94 3 8 1 17 -4 20 -25 16 37 266 86 347
21 35 45 75 53 89 20 33 130 129 148 129 7 0 13 4 13 8 0 5 11 15 25 22 13 7
22 17 19 22 -3 5 3 12 15 15 12 3 21 9 21 14 0 5 14 16 32 25 18 9 38 22 44
29 7 7 50 24 96 39 150 48 281 57 424 27z m138 -143 c20 -29 20 -73 1 -90 -9
-7 -22 -19 -30 -26 -9 -8 -16 -9 -20 -2 -3 5 -14 10 -24 10 -10 0 -24 7 -31
15 -7 9 -19 14 -27 11 -11 -4 -11 -1 -3 15 6 11 9 35 5 52 -4 21 -3 27 3 19 7
-11 10 -11 15 2 10 26 92 22 111 -6z m639 -64 c135 -39 293 -102 454 -182 78
-38 147 -72 153 -74 25 -8 -76 -201 -173 -333 -12 -16 -36 -48 -52 -71 -42
-56 -78 -98 -93 -108 -7 -4 -38 5 -71 19 -63 29 -71 40 -71 110 -1 175 -103
456 -226 618 -20 26 -31 47 -24 47 6 0 53 -12 103 -26z m1102 21 c-5 -2 -41
-12 -80 -24 -38 -11 -85 -31 -103 -45 l-33 -24 53 -25 c55 -25 111 -66 92 -67
-21 0 -139 52 -151 67 -25 32 37 85 127 109 38 11 124 19 95 9z m-2806 -52
c-7 -10 -21 -27 -30 -38 -33 -37 -115 -190 -141 -261 -15 -39 -34 -120 -44
-182 l-18 -111 -45 -17 c-80 -29 -282 -124 -343 -160 -33 -19 -60 -34 -61 -34
-7 0 6 81 13 85 12 8 1 152 -16 215 -9 30 -27 77 -40 103 -13 27 -24 53 -24
58 0 37 416 242 690 338 69 25 75 25 59 4z m4021 -72 c11 -22 1 -60 -22 -78
-11 -10 -21 -6 -47 16 -33 28 -35 51 -5 51 8 0 14 -10 14 -25 0 -26 15 -32 40
-15 13 9 13 12 -2 24 -22 16 -24 46 -3 46 8 0 19 -9 25 -19z m-1410 -201 c0
-19 -71 -88 -100 -99 -51 -17 -36 13 32 63 67 50 68 51 68 36z m1258 -72 c86
-82 112 -116 112 -146 0 -20 -39 -65 -182 -210 -101 -101 -196 -190 -211 -198
-16 -9 -37 -12 -50 -8 -32 10 -136 113 -159 157 -34 68 -24 84 155 261 186
182 230 218 257 208 10 -4 45 -33 78 -64z m-4670 -82 c54 -120 69 -321 32
-419 -21 -57 -57 -89 -175 -160 -78 -46 -163 -70 -364 -103 -91 -14 -197 -37
-235 -50 -98 -33 -103 -31 -64 22 53 74 194 243 261 313 90 94 272 257 363
325 44 33 95 72 114 87 19 15 38 28 42 28 4 1 16 -19 26 -43z m578 -367 c20
-157 62 -277 139 -399 l23 -37 -97 -22 c-53 -12 -159 -26 -236 -31 -77 -5
-189 -18 -249 -30 -60 -11 -110 -19 -111 -17 -1 1 3 83 9 182 7 99 15 171 18
160 4 -13 6 -7 7 18 0 20 5 37 10 37 5 0 11 9 14 21 3 12 10 18 15 15 13 -8
42 3 42 16 0 6 -8 4 -17 -3 -9 -8 -14 -9 -10 -2 11 17 135 83 158 83 11 0 18
4 15 8 -7 12 111 65 125 56 7 -4 10 -3 6 3 -5 8 111 63 121 57 2 -1 10 -53 18
-115z m1034 100 c40 -25 53 -39 80 -91 28 -52 28 -158 0 -204 -30 -47 -98 -78
-161 -72 -58 6 -92 28 -134 87 -27 39 -30 50 -30 121 0 74 2 81 30 111 62 66
152 86 215 48z m2085 12 c11 -5 25 -4 31 1 8 5 30 -9 65 -42 52 -50 53 -52 34
-66 -42 -30 -135 -118 -135 -128 0 -6 -14 -31 -31 -56 -16 -25 -35 -56 -40
-69 -6 -14 -15 -21 -23 -18 -8 3 -17 -1 -20 -9 -10 -27 -7 -36 10 -30 14 5 15
4 4 -8 -13 -17 -30 -6 -43 27 -3 9 -13 17 -22 17 -8 0 -15 8 -16 18 0 10 -3
12 -6 4 -2 -6 -9 -9 -14 -6 -6 4 -6 11 1 19 15 18 -4 29 -27 16 -10 -6 -12
-11 -5 -11 6 0 12 -7 12 -17 0 -15 -2 -15 -17 0 -10 8 -29 17 -43 20 -24 4
-23 4 4 6 24 1 27 3 16 16 -10 12 -10 15 0 15 8 0 11 9 8 25 -6 29 -5 30 17 9
16 -16 45 -13 45 5 0 6 -6 8 -13 5 -8 -3 -20 3 -27 13 -12 15 -12 16 0 6 19
-17 30 -16 30 2 0 9 6 12 15 9 10 -4 15 0 15 11 0 26 69 88 84 76 14 -12 36 4
36 26 0 7 5 13 11 13 8 0 8 4 0 14 -10 11 -7 17 11 30 12 9 28 16 35 16 7 0
13 7 13 15 0 10 -10 15 -31 15 -17 0 -28 4 -24 10 7 12 13 12 40 1z m-69 -83
c0 -10 -4 -18 -8 -18 -4 0 -12 8 -17 18 -7 14 -6 18 8 18 9 0 17 -8 17 -18z
m-41 -8 c3 -5 1 -10 -4 -10 -6 0 -11 5 -11 10 0 6 2 10 4 10 3 0 8 -4 11 -10z
m-2781 -194 c135 -165 271 -261 458 -321 151 -49 163 -54 152 -65 -10 -10 -84
6 -207 46 -79 26 -131 51 -205 98 -23 14 -42 22 -42 16 0 -6 7 -13 15 -16 8
-4 15 -14 16 -23 0 -10 2 -11 6 -3 2 6 9 12 15 12 6 0 7 -7 4 -16 -3 -9 -2
-12 5 -9 9 6 51 -16 76 -40 9 -9 9 -15 0 -24 -17 -17 -27 -13 -27 9 0 24 -13
26 -30 6 -8 -10 -18 -12 -33 -7 -12 5 -28 6 -34 4 -7 -3 -16 2 -19 11 -3 9
-11 16 -16 16 -6 0 -7 -8 -4 -17 5 -13 0 -11 -19 7 -14 13 -23 30 -20 38 2 7
1 11 -4 8 -13 -9 -34 21 -25 36 4 7 4 10 -1 6 -22 -20 -124 174 -155 296 -30
118 -25 131 19 49 21 -40 55 -93 75 -117z m1889 153 c32 -17 32 -17 7 -39 -13
-11 -20 -20 -17 -20 3 0 -5 -11 -19 -25 -31 -31 -36 -31 -30 -2 3 12 8 39 11
60 6 40 14 44 48 26z m820 -59 c-10 -11 -22 -20 -27 -20 -5 0 -1 9 9 20 10 11
22 20 26 20 5 0 1 -9 -8 -20z m417 -10 c0 -5 -2 -10 -4 -10 -3 0 -8 5 -11 10
-3 6 -1 10 4 10 6 0 11 -4 11 -10z m24 -29 c4 -5 -3 -7 -14 -4 -23 6 -26 13
-6 13 8 0 17 -4 20 -9z m54 -86 c-3 -3 -9 2 -12 12 -6 14 -5 15 5 6 7 -7 10
-15 7 -18z m-4037 -42 c-5 -10 -10 -84 -13 -165 -2 -81 -6 -149 -9 -153 -4 -3
-67 -24 -140 -46 -170 -51 -275 -95 -294 -122 -12 -17 -15 -62 -15 -238 l0
-216 -29 -44 c-17 -24 -41 -55 -55 -68 -25 -24 -26 -24 -71 -7 -52 20 -50 13
-35 176 5 58 14 168 20 245 12 156 18 204 25 215 3 5 6 33 6 64 1 30 6 53 10
50 5 -3 9 10 9 28 0 18 4 48 9 66 12 40 -6 53 -42 29 -42 -28 -77 -171 -102
-417 -23 -241 -36 -353 -40 -376 l-5 -21 -92 23 c-111 27 -243 38 -315 26 -31
-5 -53 -5 -53 0 0 5 22 65 50 134 90 226 229 481 293 541 65 60 182 96 466
143 189 31 270 57 376 120 60 35 58 34 46 13z m3369 -33 c0 -5 -2 -10 -4 -10
-3 0 -8 5 -11 10 -3 6 -1 10 4 10 6 0 11 -4 11 -10z m50 -10 c0 -5 -4 -10 -10
-10 -5 0 -10 5 -10 10 0 6 5 10 10 10 6 0 10 -4 10 -10z m-87 -30 c-3 -12 -8
-19 -11 -16 -5 6 5 36 12 36 2 0 2 -9 -1 -20z m54 14 c-3 -3 -12 -4 -19 -1 -8
3 -5 6 6 6 11 1 17 -2 13 -5z m-167 -88 c0 -3 -4 -8 -10 -11 -5 -3 -10 -1 -10
4 0 6 5 11 10 11 6 0 10 -2 10 -4z m-2380 -116 c0 -5 -9 -11 -20 -11 -41 -3
-159 -41 -300 -96 -194 -77 -305 -139 -393 -222 l-38 -36 12 34 c7 18 37 59
68 91 88 89 202 140 481 215 129 34 190 42 190 25z m160 -22 c0 -9 4 -8 11 2
8 12 9 11 7 -5 -2 -14 2 -19 15 -17 20 3 23 -4 3 -11 -8 -3 -24 5 -37 19 -12
13 -17 24 -11 24 7 0 12 -6 12 -12z m227 -10 c-16 -6 -33 -6 -37 -2 -5 5 7 10
28 10 37 2 37 2 9 -8z m1793 -13 c0 -8 -54 -54 -58 -50 -2 2 9 15 24 29 30 27
34 29 34 21z m60 -16 c0 -6 -4 -7 -10 -4 -5 3 -10 11 -10 16 0 6 5 7 10 4 6
-3 10 -11 10 -16z m251 -273 c66 -76 118 -141 115 -143 -9 -9 -42 16 -91 68
-27 29 -77 80 -110 112 -33 33 -61 63 -61 68 -1 5 -2 14 -3 19 0 6 -8 10 -16
10 -8 0 -15 5 -15 10 0 6 -8 10 -17 10 -15 0 -16 2 -3 10 13 8 11 12 -7 30
-27 24 -32 25 -50 3 -13 -17 -14 -16 -10 4 3 13 1 26 -4 29 -16 10 -10 23 14
27 26 4 71 -40 258 -257z m-331 234 c-12 -8 -12 -10 -1 -10 8 0 12 -3 8 -6 -9
-9 -28 6 -22 17 4 5 12 9 18 9 7 0 6 -4 -3 -10z m-50 -4 c0 -2 -8 -10 -17 -17
-16 -13 -17 -12 -4 4 13 16 21 21 21 13z m-42 -50 c-7 -8 -17 -12 -22 -9 -4 3
-2 9 5 14 22 13 31 11 17 -5z m-1920 -29 c14 -40 16 -146 2 -167 -7 -10 -10 6
-10 55 0 49 -6 82 -19 108 -17 34 -17 37 -2 37 10 0 22 -13 29 -33z m1912 -13
c0 -2 -9 0 -20 6 -11 6 -20 13 -20 16 0 2 9 0 20 -6 11 -6 20 -13 20 -16z
m-85 -24 c-3 -5 -11 -10 -16 -10 -6 0 -7 5 -4 10 3 6 11 10 16 10 6 0 7 -4 4
-10z m-1908 -68 c-6 -55 -36 -143 -65 -189 -15 -24 -33 -27 -237 -43 -141 -10
-308 -48 -400 -90 -73 -33 -153 -72 -170 -83 -59 -36 -75 -49 -70 -58 4 -5 0
-6 -8 -3 -8 3 -20 -2 -27 -11 -12 -14 -11 -18 1 -26 10 -7 7 -8 -12 -4 -17 4
-30 1 -39 -10 -12 -15 -11 -19 10 -36 15 -12 18 -17 8 -13 -12 4 -18 1 -18
-10 0 -16 -11 -19 -62 -18 l-27 1 24 -27 c27 -29 30 -38 15 -47 -5 -3 -7 0 -4
8 3 8 1 18 -5 22 -6 3 -11 1 -11 -4 0 -6 -6 -11 -14 -11 -8 0 -16 -7 -20 -15
-3 -8 -11 -15 -19 -15 -7 0 -23 -19 -35 -42 -16 -32 -23 -38 -27 -26 -4 10
-13 14 -22 11 -10 -4 -11 -8 -3 -13 9 -6 -3 -40 -28 -80 -2 -2 -7 1 -11 9 -6
9 -14 2 -30 -24 -11 -20 -21 -43 -21 -51 0 -8 -4 -13 -9 -10 -14 9 -21 -22
-11 -50 13 -33 12 -44 -1 -21 -5 9 -14 17 -19 17 -10 0 -25 -40 -21 -59 1 -7
-2 -10 -8 -6 -6 3 -11 2 -11 -4 0 -5 5 -11 11 -13 7 -2 8 -27 3 -78 -6 -61 -9
-70 -15 -47 -4 16 -4 40 2 54 13 35 11 41 -8 18 -8 -11 -13 -13 -10 -5 3 8 8
24 12 35 l7 20 -17 -20 c-9 -11 -14 -29 -11 -41 3 -12 -1 -37 -10 -55 l-15
-34 6 30 6 30 -19 -30 c-10 -16 -21 -39 -24 -50 -3 -11 -9 -29 -14 -39 -5 -12
-4 -17 3 -13 6 4 8 -3 5 -19 -2 -14 -8 -21 -11 -16 -3 6 -23 -24 -44 -67 -21
-43 -49 -90 -63 -104 -19 -20 -24 -37 -24 -76 0 -56 -16 -77 -26 -34 -3 15
-10 44 -15 63 -6 19 -12 85 -15 145 -10 194 34 387 131 572 67 127 100 176
197 295 127 153 284 272 424 318 33 11 159 47 280 79 120 32 266 75 324 96
144 50 236 74 294 74 l49 1 -6 -58z m1873 54 c0 -2 -12 -11 -27 -20 l-28 -17
24 20 c23 21 31 25 31 17z m-1445 -126 c22 -7 45 -17 50 -22 14 -14 -57 0
-135 27 -36 12 -72 23 -80 26 -19 5 -30 20 -30 41 0 15 12 12 78 -21 42 -21
95 -44 117 -51z m1333 28 c10 -10 15 -10 23 2 9 13 10 13 6 0 -2 -8 -12 -14
-23 -13 -10 1 -25 -2 -34 -7 -12 -6 -17 -5 -17 5 0 7 7 11 15 7 10 -3 13 -1 8
6 -10 16 7 15 22 0z m-1498 -133 c10 -15 7 -14 -13 4 -15 14 -27 29 -27 33 0
10 16 -5 40 -37z m1261 -10 c11 6 11 5 2 -5 -14 -15 -47 -5 -37 11 5 8 9 8 14
-1 5 -7 14 -9 21 -5z m-8 -44 c7 0 7 3 -2 6 -10 4 -5 10 15 18 27 12 31 10 63
-24 78 -83 251 -284 251 -291 0 -4 -11 -7 -25 -7 -13 0 -23 3 -22 7 1 4 -11
23 -28 41 -16 19 -30 36 -30 39 -1 15 -19 30 -36 30 -11 0 -23 8 -26 18 -8 19
-33 47 -33 36 0 -4 -6 0 -13 10 -12 17 -14 17 -20 2 -7 -17 -27 -22 -27 -7 0
5 7 16 15 24 12 12 12 16 1 20 -7 3 -21 -4 -32 -16 -17 -20 -19 -20 -22 -4 -2
9 -11 17 -20 17 -9 0 -26 7 -36 15 -21 16 -52 20 -59 8 -2 -5 -2 -2 0 5 1 8 3
19 3 26 0 7 10 12 21 12 12 -1 24 4 25 9 2 6 -10 10 -26 11 -17 1 -30 -3 -30
-7 0 -5 -12 -9 -27 -8 -25 0 -22 3 22 24 49 23 50 23 68 4 10 -10 23 -19 30
-18z m-1246 -28 c-3 -10 -5 -2 -5 17 0 19 2 27 5 18 2 -10 2 -26 0 -35z m3640
-4 c17 -15 17 -60 -1 -84 -13 -18 -14 -17 -20 13 -4 17 -21 48 -37 68 -16 20
-29 38 -29 41 0 5 72 -26 87 -38z m-2547 11 c0 -5 6 -7 13 -4 7 2 13 -4 14
-16 1 -11 -3 -20 -8 -20 -6 0 -8 4 -4 10 3 5 -11 3 -32 -4 -28 -10 -37 -18
-35 -32 5 -26 7 -27 32 -19 16 5 19 10 11 18 -19 19 -12 26 24 24 40 -2 53
-23 29 -46 -10 -10 -14 -11 -9 -3 5 10 1 13 -16 10 -16 -2 -23 -9 -23 -21 2
-13 -4 -17 -20 -15 -11 2 -24 7 -27 12 -4 4 -10 3 -13 -3 -4 -6 -2 -11 3 -11
6 0 11 -4 11 -10 0 -5 -8 -10 -18 -10 -9 0 -23 -9 -30 -21 -11 -18 -21 -20
-67 -17 -51 3 -54 2 -49 -18 5 -19 1 -21 -34 -21 l-39 0 -1 43 c0 41 1 42 24
34 29 -11 32 -5 4 10 -14 7 -26 8 -39 0 -11 -5 -34 -7 -51 -3 -30 5 -26 8 50
34 45 16 85 28 88 27 4 -1 23 6 42 14 58 26 84 32 75 18 -9 -15 26 -5 65 17
16 9 17 12 5 8 -47 -16 -58 -15 -25 3 41 23 50 25 50 12z m-4294 -129 c20 -22
74 -69 120 -102 47 -34 82 -64 80 -66 -10 -10 -129 71 -180 121 -48 47 -97
128 -96 158 1 7 10 -6 21 -28 11 -23 36 -60 55 -83z m-73 -29 c8 -15 13 -32
11 -37 -5 -12 75 -98 124 -135 19 -14 39 -30 46 -36 20 -19 129 -73 137 -69 4
3 12 -2 18 -9 10 -12 18 -8 45 22 l33 36 12 -23 c9 -16 10 -31 3 -51 -12 -32
-7 -40 20 -40 10 0 18 -6 18 -13 0 -15 -35 -47 -52 -47 -6 0 -22 -9 -34 -21
-17 -16 -27 -19 -40 -11 -14 8 -21 6 -31 -6 -10 -14 -14 -15 -22 -3 -6 10 -11
5 -17 -20 -4 -19 -7 -40 -5 -47 1 -7 -4 -11 -11 -10 -7 2 -12 -3 -10 -10 5
-25 -38 -71 -72 -78 -79 -14 -169 62 -201 169 -27 91 -15 104 14 16 36 -111
83 -159 158 -162 63 -2 109 73 96 158 -10 69 -50 131 -134 212 -100 98 -136
164 -144 273 l-5 75 15 -53 c8 -29 21 -65 28 -80z m7440 95 c28 -11 30 -33 6
-66 -27 -37 -39 -38 -67 -8 l-22 23 22 43 c17 35 23 41 32 29 6 -8 19 -17 29
-21z m-4155 -103 c-3 -14 -5 -12 -10 9 -3 19 -2 25 4 19 6 -6 8 -18 6 -28z
m689 30 c-3 -3 -12 -4 -19 -1 -8 3 -5 6 6 6 11 1 17 -2 13 -5z m-707 -34 c0
-5 -13 -10 -29 -10 -17 0 -33 5 -36 10 -4 6 8 10 29 10 20 0 36 -4 36 -10z
m-153 -30 c-2 -24 -10 -25 -26 -6 -9 11 -9 15 1 19 23 9 27 7 25 -13z m163
-14 c0 -1 -7 -19 -15 -41 l-14 -40 -1 38 c0 33 -13 51 -22 28 -1 -5 -9 -3 -16
5 -12 13 -8 15 27 12 23 -1 41 -2 41 -2z m-2100 -33 c99 -21 313 -97 290 -104
-28 -7 -80 -2 -80 9 0 12 -16 20 -65 35 -18 6 -20 2 -22 -46 -4 -137 -56 -432
-74 -422 -4 3 -5 -4 -2 -15 3 -12 0 -20 -7 -20 -6 0 -9 -8 -6 -18 4 -10 0 -39
-8 -65 -7 -25 -11 -48 -8 -51 2 -3 -1 -12 -8 -20 -7 -10 -10 -31 -6 -58 4 -34
3 -38 -4 -18 -7 18 -8 4 -5 -50 3 -67 3 -70 -6 -30 -5 25 -8 62 -5 83 2 20 0
37 -5 37 -6 0 -7 -52 -3 -132 4 -73 4 -131 1 -128 -3 3 -7 38 -8 79 -1 40 -4
85 -7 99 -4 21 -7 23 -16 10 -10 -13 -62 -25 -135 -31 -13 -1 -27 -11 -32 -22
-4 -11 -8 -14 -8 -7 -1 10 -4 10 -14 0 -17 -15 -18 -40 -3 -50 6 -4 -7 -7 -29
-5 -38 2 -40 1 -45 -33 -4 -24 -7 -30 -12 -19 -3 9 -20 19 -36 22 -17 3 -30
12 -29 19 0 7 -1 22 -2 33 -2 18 -3 18 -12 -3 -13 -33 -27 -19 -35 34 -8 56
-27 53 -35 -7 l-6 -44 -3 45 c-3 36 -5 29 -10 -35 -4 -48 -6 -10 -4 95 2 96 8
211 14 255 19 154 117 536 141 551 6 3 45 12 87 19 77 13 77 13 27 16 l-50 2
50 7 c62 9 138 4 235 -17z m2950 12 c0 -8 -4 -15 -10 -15 -5 0 -10 7 -10 15 0
8 5 15 10 15 6 0 10 -7 10 -15z m-3263 -11 c-3 -3 -12 -4 -19 -1 -8 3 -5 6 6
6 11 1 17 -2 13 -5z m3030 -26 c-3 -7 -5 -2 -5 12 0 14 2 19 5 13 2 -7 2 -19
0 -25z m20 0 c-3 -8 -6 -5 -6 6 -1 11 2 17 5 13 3 -3 4 -12 1 -19z m-1916 -11
c-10 -9 -11 -8 -5 6 3 10 9 15 12 12 3 -3 0 -11 -7 -18z m1239 -47 c0 -5 -8
-10 -17 -10 -15 0 -16 2 -3 10 19 12 20 12 20 0z m-940 -28 c-38 -29 -110 -65
-110 -54 0 13 113 81 135 81 6 1 -6 -12 -25 -27z m1577 6 c-3 -8 -6 -5 -6 6
-1 11 2 17 5 13 3 -3 4 -12 1 -19z m38 -108 c10 -11 16 -20 13 -20 -3 0 -13 9
-23 20 -10 11 -16 20 -13 20 3 0 13 -9 23 -20z m-1195 -31 c52 -23 135 -50
185 -60 49 -10 98 -23 107 -29 10 -5 27 -10 39 -10 12 0 50 -5 85 -12 53 -9
64 -15 64 -31 0 -19 -5 -20 -132 -14 -152 6 -286 33 -395 78 -59 25 -73 35
-73 52 0 29 11 67 19 67 3 0 49 -18 101 -41z m1276 -5 c-47 -15 -63 -14 -53 3
3 4 27 9 54 10 l48 2 -49 -15z m-1902 -36 c-12 -87 -30 -118 -71 -118 -12 0
-23 3 -23 7 0 18 83 143 96 143 1 0 0 -15 -2 -32z m3206 8 c0 -32 -18 -43 -38
-23 -13 13 -13 19 -2 31 19 24 40 19 40 -8z m-1436 -57 c-3 -5 -14 -14 -25
-19 -16 -9 -19 -7 -18 12 0 13 3 17 6 11 2 -7 9 -13 15 -13 6 0 7 7 4 15 -18
44 -17 50 3 26 12 -12 18 -27 15 -32z m-2138 -26 c-10 -10 -19 5 -10 18 6 11
8 11 12 0 2 -7 1 -15 -2 -18z m34 -3 c0 -5 -5 -10 -11 -10 -5 0 -7 5 -4 10 3
6 8 10 11 10 2 0 4 -4 4 -10z m862 -49 c2 -23 -1 -37 -6 -34 -10 7 0 -545 11
-585 5 -22 3 -23 -28 -20 -31 3 -34 6 -42 48 -12 65 -2 567 12 613 10 32 15
36 30 27 12 -6 20 -24 23 -49z m-2125 14 c40 -20 44 -24 23 -24 -26 -1 -130
43 -130 54 0 11 57 -5 107 -30z m6643 31 c0 -3 -4 -8 -10 -11 -5 -3 -10 -1
-10 4 0 6 5 11 10 11 6 0 10 -2 10 -4z m168 -5 c1 -1 2 -21 2 -45 0 -52 -19
-77 -58 -75 -37 2 -55 -3 -69 -21 -9 -12 -16 -13 -31 -3 -12 7 -35 10 -56 6
-32 -5 -36 -3 -42 22 -3 14 -1 38 5 51 10 24 14 25 80 20 82 -5 115 10 91 39
-13 16 -11 17 30 12 25 -3 46 -6 48 -6z m-198 -11 c0 -5 -5 -10 -11 -10 -5 0
-7 5 -4 10 3 6 8 10 11 10 2 0 4 -4 4 -10z m-4949 -28 c-6 -10 -22 -27 -37
-37 -26 -16 -25 -15 7 23 35 42 48 48 30 14z m1769 1 c0 -5 -12 -14 -28 -20
l-27 -13 24 20 c25 22 31 24 31 13z m-4035 -23 c3 -6 -1 -7 -9 -4 -18 7 -21
14 -7 14 6 0 13 -4 16 -10z m2315 -4 c0 -2 -8 -10 -17 -17 -16 -13 -17 -12 -4
4 13 16 21 21 21 13z m103 -51 c40 -28 47 -38 20 -28 -10 3 -15 2 -10 -2 4 -5
15 -9 25 -10 28 -2 92 -36 86 -46 -3 -5 2 -6 10 -3 12 5 16 0 16 -19 0 -30
-19 -38 -73 -32 -33 4 -36 3 -17 -4 24 -9 23 -9 -10 -12 -43 -3 -57 -2 -92 5
-16 3 -28 1 -28 -4 0 -6 10 -10 23 -11 12 0 -8 -9 -44 -18 -36 -10 -72 -22
-79 -26 -10 -6 -12 1 -8 31 4 21 9 48 13 59 6 17 5 18 -5 5 -10 -12 -11 -11
-6 10 3 14 6 35 6 48 0 19 4 22 19 17 13 -4 27 1 39 13 21 21 64 52 72 52 3 0
22 -11 43 -25z m-248 1 c-26 -17 -95 -30 -95 -17 0 5 19 14 43 19 63 15 75 14
52 -2z m-412 -46 c-6 -7 -23 23 -23 40 0 8 6 4 13 -10 8 -14 12 -27 10 -30z
m534 23 c-9 -9 -19 -14 -23 -11 -10 10 6 28 24 28 15 0 15 -1 -1 -17z m1836
-64 c153 -281 178 -332 169 -341 -7 -7 -14 -3 -22 13 -16 30 -54 99 -120 219
-50 89 -80 159 -80 183 0 14 21 -16 53 -74z m-2243 56 c0 -8 -4 -15 -10 -15
-5 0 -7 7 -4 15 4 8 8 15 10 15 2 0 4 -7 4 -15z m-1250 -2 c-8 -3 -23 -10 -32
-15 -13 -6 -18 -5 -18 7 0 10 10 15 33 14 17 0 25 -3 17 -6z m1160 -28 c0 -5
-5 -3 -10 5 -5 8 -10 20 -10 25 0 6 5 3 10 -5 5 -8 10 -19 10 -25z m-1140 11
c0 -3 -4 -8 -10 -11 -5 -3 -10 -1 -10 4 0 6 5 11 10 11 6 0 10 -2 10 -4z
m1427 -18 c-3 -8 -6 -5 -6 6 -1 11 2 17 5 13 3 -3 4 -12 1 -19z m-1460 -10
c-3 -8 -6 -5 -6 6 -1 11 2 17 5 13 3 -3 4 -12 1 -19z m20 -65 c-2 -16 -4 -5
-4 22 0 28 2 40 4 28 2 -13 2 -35 0 -50z m-37 2 c0 -5 -5 -3 -10 5 -5 8 -10
20 -10 25 0 6 5 3 10 -5 5 -8 10 -19 10 -25z m1185 -2 c-2 -21 1 -40 6 -44 7
-4 4 -9 -5 -12 -13 -5 -16 1 -16 27 0 32 8 66 15 66 2 0 1 -17 0 -37z m308 25
c3 -10 7 -10 20 1 15 12 17 11 17 -10 0 -19 -2 -21 -10 -9 -7 11 -10 11 -10 2
0 -7 -5 -10 -11 -6 -9 5 -10 -1 -5 -22 5 -19 4 -25 -2 -19 -15 15 -25 75 -14
75 6 0 12 -6 15 -12z m-343 -48 c0 -16 -4 -31 -9 -34 -4 -3 -8 12 -8 34 0 22
4 37 8 34 5 -3 9 -18 9 -34z m-63 -32 c-3 -8 -6 -5 -6 6 -1 11 2 17 5 13 3 -3
4 -12 1 -19z m-3051 -42 c7 -40 -3 -66 -17 -45 -12 19 -11 79 1 79 5 0 12 -15
16 -34z m954 -11 c0 -25 -4 -45 -10 -45 -5 0 -10 6 -10 14 0 7 -3 28 -6 45 -5
24 -3 31 10 31 12 0 16 -10 16 -45z m45 15 c7 0 19 -13 27 -30 7 -16 19 -32
27 -35 10 -4 9 1 -4 21 -9 14 -14 29 -10 32 3 4 10 1 14 -7 5 -7 11 -12 15
-12 25 4 36 -1 36 -15 0 -11 -5 -14 -16 -10 -12 4 -14 1 -9 -14 7 -21 -9 -58
-22 -51 -4 3 -10 -4 -12 -15 -4 -21 -20 -44 -31 -44 -4 0 -12 11 -18 25 -9 19
-19 25 -42 25 -35 0 -38 15 -9 46 21 23 26 38 29 89 2 18 4 23 7 13 2 -10 11
-18 18 -18z m38 15 c-3 -9 -8 -14 -10 -11 -3 3 -2 9 2 15 9 16 15 13 8 -4z
m-1091 -152 c6 -13 8 -26 4 -30 -4 -4 -9 3 -13 15 -6 23 -23 31 -23 10 0 -6
-3 -8 -6 -5 -4 4 -1 42 7 84 l14 78 3 -65 c1 -36 7 -75 14 -87z m8736 125 c-2
-13 -10 -23 -18 -23 -8 0 -16 10 -18 23 -3 17 2 22 18 22 16 0 21 -5 18 -22z
m-4823 2 c-16 -4 -39 -8 -50 -8 -16 0 -15 2 5 8 14 4 36 8 50 8 22 0 22 -1 -5
-8z m-140 -31 c-38 -10 -74 -17 -80 -15 -12 3 103 34 130 34 11 0 -11 -8 -50
-19z m-95 -24 c0 -8 -52 -26 -58 -20 -3 2 6 9 19 14 28 11 39 13 39 6z m-610
-24 c0 -5 -7 -14 -15 -21 -13 -10 -15 -9 -15 9 0 12 6 21 15 21 8 0 15 -4 15
-9z m-54 -37 c-3 -9 -6 -21 -6 -28 0 -17 -38 -61 -46 -53 -3 3 4 14 15 24 12
10 21 29 21 45 0 16 5 28 11 28 6 0 8 -7 5 -16z m-779 -36 c-3 -7 -5 -2 -5 12
0 14 2 19 5 13 2 -7 2 -19 0 -25z m276 8 c4 -10 1 -13 -9 -9 -7 3 -14 9 -14
14 0 14 17 10 23 -5z m-13 -26 c0 -5 -5 -10 -11 -10 -5 0 -7 5 -4 10 3 6 8 10
11 10 2 0 4 -4 4 -10z m960 -5 c7 -9 8 -15 2 -15 -5 0 -12 7 -16 15 -3 8 -4
15 -2 15 2 0 9 -7 16 -15z m-915 -14 c-3 -6 -11 -11 -17 -11 -6 0 -6 6 2 15
14 17 26 13 15 -4z m1695 -46 c0 -13 -4 -27 -10 -30 -11 -7 -25 39 -15 55 10
16 25 2 25 -25z m-2617 13 c-13 -6 -23 -15 -23 -20 0 -11 42 1 51 14 11 16 44
0 95 -46 l49 -44 8 -398 c4 -219 4 -401 0 -405 -5 -4 -51 -18 -103 -29 -52
-12 -111 -26 -130 -30 -106 -24 -97 -25 -104 10 -3 18 -6 54 -6 81 0 50 -3 55
-60 92 l-35 23 0 264 c0 261 1 266 24 303 13 21 32 42 43 48 10 6 35 34 53 64
19 30 40 57 47 61 15 9 67 22 93 22 18 1 18 0 -2 -10z m789 -10 c-7 -7 -12 -8
-12 -2 0 14 12 26 19 19 2 -3 -1 -11 -7 -17z m538 -17 c0 -5 -7 -14 -15 -21
-12 -10 -15 -10 -15 2 0 8 3 18 7 21 9 10 23 9 23 -2z m2817 -23 c-3 -8 -6 -5
-6 6 -1 11 2 17 5 13 3 -3 4 -12 1 -19z m-3433 -4 c3 -8 2 -12 -4 -9 -6 3 -10
10 -10 16 0 14 7 11 14 -7z m786 6 c0 -5 -2 -10 -4 -10 -3 0 -8 5 -11 10 -3 6
-1 10 4 10 6 0 11 -4 11 -10z m-157 -7 c-7 -2 -14 -21 -14 -41 -2 -32 -3 -33
-6 -9 -5 35 2 57 19 56 10 0 10 -2 1 -6z m187 -13 c0 -5 -4 -10 -10 -10 -5 0
-10 5 -10 10 0 6 5 10 10 10 6 0 10 -4 10 -10z m5773 -28 c48 -53 29 -146 -69
-342 -104 -207 -125 -225 -209 -177 -37 21 -40 27 -39 63 1 41 114 306 160
377 24 36 105 97 129 97 7 0 19 -8 28 -18z m-5886 -24 c-3 -8 -6 -5 -6 6 -1
11 2 17 5 13 3 -3 4 -12 1 -19z m223 -22 c0 -2 -7 -7 -16 -10 -8 -3 -12 -2 -9
4 6 10 25 14 25 6z m2557 -26 c3 -11 10 -20 15 -20 5 0 16 -17 25 -37 8 -21
33 -74 55 -118 51 -100 60 -125 48 -125 -5 0 -45 72 -90 160 -44 88 -75 160
-69 160 6 0 13 -9 16 -20z m-1675 -12 c5 -13 -1 -50 -28 -198 -18 -94 -26
-125 -77 -315 -20 -71 -38 -142 -41 -156 -4 -18 -14 -29 -32 -33 -15 -4 -28
-6 -29 -4 -1 2 19 89 45 193 47 187 100 454 100 501 0 20 5 24 29 24 16 0 31
-5 33 -12z m138 -30 c0 -15 -29 -20 -68 -12 l-37 8 35 5 c49 9 70 8 70 -1z
m878 -115 c71 -76 167 -294 185 -416 l6 -38 -18 23 c-10 13 -60 93 -111 178
-51 85 -117 192 -146 237 -33 51 -48 83 -41 86 24 9 83 -24 125 -70z m2379 47
c18 -10 41 -36 51 -57 11 -21 122 -343 247 -716 240 -716 241 -721 199 -768
-20 -22 -64 -37 -248 -84 -76 -19 -147 -33 -158 -30 -24 8 -40 41 -82 166 -55
167 -146 463 -146 475 0 6 -6 17 -14 23 -17 14 -31 -20 -100 -246 -88 -286
-114 -333 -198 -358 -117 -34 -133 -24 -330 209 -88 105 -165 193 -169 194
-14 6 -12 -25 28 -347 40 -332 41 -331 -17 -372 -28 -21 -320 -99 -368 -99
-18 0 -40 8 -51 19 -22 22 -24 34 -46 271 -9 91 -36 352 -61 580 -63 578 -71
670 -63 712 15 86 98 146 234 169 88 15 136 6 181 -33 19 -17 90 -99 156 -182
67 -83 145 -179 172 -212 28 -34 76 -93 106 -132 30 -39 60 -74 67 -76 8 -3
21 24 38 82 221 739 210 707 256 753 70 70 245 103 316 59z m-2794 -171 c9
-36 30 -97 46 -135 29 -69 32 -82 12 -69 -32 19 -105 222 -95 262 9 34 19 19
37 -58z m-830 -16 c-13 -2 -35 -2 -50 0 -16 2 -5 4 22 4 28 0 40 -2 28 -4z
m-993 -123 c-30 -11 -64 -19 -75 -19 -13 1 -10 4 10 9 17 5 44 13 60 18 17 6
37 10 45 10 8 1 -10 -8 -40 -18z m-145 -40 c-3 -5 -11 -10 -16 -10 -6 0 -7 5
-4 10 3 6 11 10 16 10 6 0 7 -4 4 -10z m18 -117 c33 -190 39 -257 34 -393 -9
-198 -52 -410 -83 -410 -10 0 -14 6 -11 14 28 73 48 166 63 301 15 138 16 175
5 272 -7 61 -20 145 -29 185 -16 71 -18 128 -4 128 4 0 15 -44 25 -97z m-423
2 c0 -2 -18 -14 -40 -25 -22 -11 -40 -18 -40 -15 0 2 17 13 38 24 42 23 42 23
42 16z m2783 -92 c16 -8 43 -34 60 -59 59 -83 354 -553 616 -983 183 -301 191
-317 191 -366 0 -85 -19 -96 -303 -165 -171 -42 -168 -43 -245 92 -30 53 -61
99 -68 102 -18 7 -376 -82 -391 -98 -7 -6 -20 -61 -28 -121 -21 -146 -21 -146
-211 -196 -217 -58 -287 -47 -314 50 -12 45 15 229 130 871 27 151 61 338 75
415 13 77 31 179 39 227 12 72 20 94 48 128 39 50 93 83 168 104 100 28 177
27 233 -1z m-3360 -110 c-2 -10 -24 -25 -51 -34 -26 -9 -60 -21 -77 -27 -35
-12 -158 -42 -174 -42 -6 0 -11 9 -11 19 0 26 39 38 254 81 27 6 52 12 54 15
9 9 10 5 5 -12z m2315 -117 c34 -29 34 -29 97 -396 70 -399 115 -686 122 -770
25 -318 -215 -618 -547 -686 -191 -38 -367 11 -494 140 -74 75 -116 151 -150
270 -32 110 -33 141 -3 160 22 15 367 106 400 106 22 0 42 -34 56 -96 31 -134
123 -181 199 -103 62 64 62 66 -22 575 -42 253 -83 498 -91 545 -21 120 -19
146 9 174 25 25 48 33 226 76 144 34 162 35 198 5z m-2008 -356 c0 -95 -2
-110 -16 -110 -15 0 -16 10 -11 79 3 44 3 81 1 84 -2 2 -66 -11 -141 -28
l-138 -32 -3 -87 c-3 -78 -5 -86 -22 -86 -18 0 -20 7 -20 93 0 115 6 137 34
137 20 0 161 30 241 50 77 20 75 22 75 -100z m-82 -62 c-14 -81 -27 -94 -101
-107 -35 -6 -67 -11 -70 -11 -4 0 -7 29 -7 65 l0 64 38 10 c20 5 53 14 72 19
19 6 45 11 56 11 20 1 21 -2 12 -51z m-1984 -115 c1 -33 -2 -38 -23 -41 -28
-4 -41 12 -41 51 0 20 7 30 23 36 29 12 39 0 41 -46z m112 30 c6 -20 2 -31
-16 -45 -12 -10 -26 -18 -31 -18 -15 0 -10 17 6 24 8 3 15 12 15 21 0 11 -6
14 -25 9 -27 -7 -28 -5 -19 20 4 10 18 16 35 16 23 0 30 -6 35 -27z m13 -307
c-9 -8 -10 -7 -5 7 3 10 7 24 7 30 1 7 3 4 6 -7 3 -10 -1 -23 -8 -30z m3395
-4 c3 -5 -21 -13 -52 -19 -137 -26 -302 -144 -318 -227 -5 -27 -13 -40 -32
-47 -44 -17 -52 -9 -37 34 42 121 177 226 330 257 55 11 103 12 109 2z m-1620
-72 c7 0 11 -12 10 -27 -2 -42 -3 -43 -19 -43 -11 0 -15 12 -14 48 0 26 3 41
6 35 2 -7 10 -13 17 -13z m-44 -11 c0 -14 -5 -19 -17 -17 -23 4 -28 25 -6 31
10 3 19 5 21 6 1 0 2 -8 2 -20z m740 -269 c0 -4 15 -12 33 -17 l32 -10 -27
-11 c-20 -8 -28 -19 -28 -37 0 -16 -6 -25 -15 -25 -8 0 -15 9 -15 20 0 16 -7
20 -30 20 -36 0 -39 16 -5 32 19 8 25 19 25 42 1 29 1 30 15 12 8 -11 15 -23
15 -26z m-2611 -56 c3 -16 1 -17 -14 -4 -14 12 -18 12 -25 -1 -7 -10 -3 -15
18 -20 25 -5 24 -6 -11 -10 -21 -3 -39 -3 -41 -1 -9 9 8 41 27 50 28 14 41 10
46 -14z m109 -26 c-5 -15 -48 -24 -48 -10 0 14 12 22 33 22 10 0 17 -5 15 -12z
m-100 -30 c-6 -16 -34 -22 -56 -12 -14 6 -11 9 13 14 45 11 47 11 43 -2z m168
-335 c4 -21 13 -46 22 -55 8 -10 10 -18 4 -18 -6 0 -17 -3 -26 -6 -13 -5 -16
2 -16 35 0 23 -4 41 -9 41 -5 0 -7 9 -4 20 8 31 21 23 29 -17z m99 22 c-16 -7
-25 -14 -18 -14 7 -1 10 -7 7 -15 -6 -17 -34 -10 -34 8 0 20 22 36 50 36 25
-1 25 -1 -5 -15z m-184 -70 c7 -39 -1 -54 -27 -55 -6 0 -17 24 -26 53 l-14 54
30 -7 c27 -5 32 -11 37 -45z m219 36 c0 -26 -26 -51 -53 -50 l-22 0 23 16 c12
8 22 24 22 34 0 11 7 19 15 19 8 0 15 -9 15 -19z m10 -245 c0 -2 -7 -7 -16
-10 -8 -3 -12 -2 -9 4 6 10 25 14 25 6z m-130 -36 c0 -5 -15 -10 -32 -9 -28 0
-30 2 -13 9 28 12 45 12 45 0z m120 -2 c0 -11 -28 -10 -35 1 -3 6 4 9 15 8 11
-1 20 -5 20 -9z m-275 -28 c-27 -12 -43 -12 -25 0 8 5 22 9 30 9 10 0 8 -3 -5
-9z m62 -62 c-3 -8 -6 -5 -6 6 -1 11 2 17 5 13 3 -3 4 -12 1 -19z m6751 10 c7
-7 12 -24 12 -38 0 -34 -13 -40 -160 -74 -63 -15 -140 -35 -170 -44 -30 -9
-62 -17 -70 -17 -8 -1 -22 -4 -30 -8 -34 -14 -147 -47 -180 -51 -19 -3 -53
-12 -75 -20 -65 -23 -238 -67 -268 -68 -16 -1 -45 -9 -65 -20 -20 -10 -46 -18
-59 -18 -12 0 -24 -4 -28 -9 -8 -14 -115 -43 -133 -36 -8 3 -24 -1 -36 -8 -12
-8 -34 -17 -51 -20 -16 -3 -79 -19 -140 -36 -60 -17 -128 -31 -149 -31 -22 0
-47 -7 -57 -16 -10 -9 -25 -14 -33 -11 -21 8 -31 66 -14 83 22 22 120 53 138
44 9 -5 22 -5 30 0 7 5 43 14 78 21 38 7 73 20 84 31 16 16 28 19 59 14 23 -4
49 -2 61 5 12 6 53 20 92 30 39 10 112 32 161 49 50 17 110 32 135 35 25 2 81
15 125 29 44 14 100 32 125 40 25 8 65 17 90 21 53 7 129 32 148 47 7 6 33 11
57 10 25 0 45 3 45 8 0 4 26 12 58 18 31 6 82 19 112 30 67 23 92 26 108 10z
m-6433 -321 c-12 -10 -16 -22 -13 -40 4 -19 1 -27 -8 -27 -8 0 -14 6 -14 13 0
6 -3 22 -6 34 -6 21 5 29 45 32 11 1 9 -3 -4 -12z m-248 -32 c-15 -16 -22 -11
-13 10 3 9 10 13 16 10 6 -4 5 -11 -3 -20z m163 -6 c16 -29 11 -49 -15 -61
-19 -9 -29 -8 -50 6 -14 9 -25 24 -25 33 0 14 3 13 16 -5 16 -23 48 -30 59
-12 10 17 -15 50 -38 51 -21 0 -21 1 -2 8 25 10 43 4 55 -20z m-126 -33 c3
-13 9 -31 12 -40 4 -11 1 -16 -10 -16 -10 0 -16 9 -16 25 0 14 -5 25 -11 25
-7 0 -9 -10 -5 -25 4 -14 2 -25 -4 -25 -5 0 -10 9 -10 19 0 11 -3 26 -6 34 -5
14 4 20 37 26 4 0 10 -10 13 -23z m-114 8 c0 -4 -7 -12 -16 -18 -19 -15 -8
-46 16 -46 27 0 34 -18 9 -25 -11 -4 -22 -5 -23 -3 -9 11 -36 78 -36 87 0 6
11 11 25 11 14 0 25 -3 25 -6z m-90 -40 c0 -14 -3 -14 -15 -4 -12 10 -18 10
-30 0 -20 -17 -11 -28 20 -22 15 2 25 0 25 -7 0 -6 -16 -11 -35 -11 -30 0 -35
3 -35 24 0 26 11 34 48 35 14 1 22 -5 22 -15z m-10 -69 c-29 -17 -50 -19 -50
-6 0 10 23 18 55 19 17 1 17 -1 -5 -13z m160 -361 c12 -32 13 -54 1 -54 -5 0
-12 16 -15 35 -5 25 -12 35 -26 35 -15 0 -20 -9 -22 -47 l-4 -48 -17 39 c-10
21 -17 39 -15 41 41 32 86 32 98 -1z m-118 -30 c22 -47 -24 -83 -63 -48 -34
31 -18 74 28 74 15 0 27 -9 35 -26z m348 -417 c0 -18 -2 -19 -10 -7 -13 20
-13 43 0 35 6 -3 10 -16 10 -28z m-190 3 c0 -5 -4 -10 -10 -10 -5 0 -10 5 -10
10 0 6 5 10 10 10 6 0 10 -4 10 -10z"/>
<path d="M9086 9628 c8 -28 12 -33 20 -25 9 8 -6 47 -17 47 -6 0 -7 -10 -3
-22z"/>
<path d="M5906 9632 c-9 -27 3 -54 23 -50 22 5 22 62 -1 66 -9 2 -19 -5 -22
-16z"/>
<path d="M5590 9580 c0 -5 9 -10 21 -10 11 0 17 5 14 10 -3 6 -13 10 -21 10
-8 0 -14 -4 -14 -10z"/>
<path d="M5583 9548 c2 -7 12 -13 22 -13 10 0 20 6 23 13 2 7 -6 12 -23 12
-17 0 -25 -5 -22 -12z"/>
<path d="M5277 9544 c-15 -15 -7 -45 11 -42 9 2 17 12 17 22 0 20 -16 31 -28
20z"/>
<path d="M5270 9480 c0 -5 7 -10 15 -10 8 0 15 5 15 10 0 6 -7 10 -15 10 -8 0
-15 -4 -15 -10z"/>
<path d="M8435 9540 c-3 -5 -1 -10 4 -10 6 0 11 5 11 10 0 6 -2 10 -4 10 -3 0
-8 -4 -11 -10z"/>
<path d="M8243 9485 c-3 -9 -3 -18 0 -22 10 -10 37 6 37 22 0 20 -29 20 -37 0z"/>
<path d="M8357 9507 c-4 -11 -5 -23 -1 -28 3 -5 0 -9 -5 -9 -6 0 -11 -9 -11
-20 0 -23 18 -27 26 -6 3 8 4 29 2 48 -2 26 -5 29 -11 15z"/>
<path d="M8147 9493 c-4 -3 -7 -17 -7 -30 0 -20 5 -24 23 -21 30 4 39 58 9 58
-10 0 -22 -3 -25 -7z"/>
<path d="M4332 9378 c-7 -7 -12 -25 -12 -41 0 -22 4 -28 18 -25 12 2 18 14 20
41 3 38 -5 46 -26 25z"/>
<path d="M4437 9394 c-13 -13 -7 -24 14 -24 11 0 19 5 17 12 -5 14 -22 21 -31
12z"/>
<path d="M7465 9340 c-3 -5 3 -10 14 -10 11 0 23 5 26 10 3 6 -3 10 -14 10
-11 0 -23 -4 -26 -10z"/>
<path d="M4216 9344 c-4 -10 -2 -22 3 -27 14 -14 43 0 39 20 -4 24 -34 28 -42
7z"/>
<path d="M7334 9340 c-12 -12 -7 -50 6 -50 4 0 13 7 20 15 8 9 8 15 2 15 -6 0
-12 7 -14 16 -2 11 -6 12 -14 4z"/>
<path d="M3561 9246 c-14 -17 2 -66 22 -66 10 0 14 13 14 40 0 42 -14 52 -36
26z"/>
<path d="M3220 9181 c-12 -23 -3 -51 16 -51 18 0 36 34 28 54 -8 22 -31 20
-44 -3z"/>
<path d="M6247 9148 c-8 -27 -1 -38 24 -38 24 0 26 30 2 31 -11 0 -13 3 -5 6
6 2 10 9 6 14 -9 15 -21 10 -27 -13z"/>
<path d="M6455 9150 c4 -6 11 -8 16 -5 14 9 11 15 -7 15 -8 0 -12 -5 -9 -10z"/>
<path d="M2782 9100 c0 -14 2 -19 5 -12 2 6 2 18 0 25 -3 6 -5 1 -5 -13z"/>
<path d="M2730 9100 c0 -5 5 -10 10 -10 6 0 10 5 10 10 0 6 -4 10 -10 10 -5 0
-10 -4 -10 -10z"/>
<path d="M6154 9146 c-4 -9 -4 -20 0 -23 3 -4 12 -1 18 5 9 9 9 15 0 24 -9 9
-13 7 -18 -6z"/>
<path d="M6173 9113 c-17 -6 -16 -23 1 -23 8 0 16 7 20 15 6 15 1 17 -21 8z"/>
<path d="M2847 9103 c-9 -8 12 -33 28 -33 14 0 27 25 18 34 -8 8 -38 8 -46 -1z"/>
<path d="M1683 8925 c-15 -16 -16 -25 -5 -25 4 0 13 9 20 20 14 23 3 26 -15 5z"/>
<path d="M5355 8989 c-8 -25 7 -44 29 -36 21 8 20 27 -1 28 -11 0 -13 3 -5 6
17 7 15 23 -2 23 -8 0 -18 -9 -21 -21z"/>
<path d="M5092 8928 c5 -34 38 -37 38 -4 0 20 -5 26 -21 26 -15 0 -20 -5 -17
-22z"/>
<path d="M5194 8965 c-4 -9 -2 -21 4 -27 15 -15 44 -1 40 19 -4 23 -36 29 -44
8z"/>
<path d="M4893 8923 c-18 -6 -16 -38 2 -53 19 -16 35 -5 35 25 0 24 -16 35
-37 28z"/>
<path d="M4716 8885 c-4 -10 1 -15 14 -15 11 0 20 7 20 15 0 8 -6 15 -14 15
-8 0 -16 -7 -20 -15z"/>
<path d="M4710 8851 c0 -15 16 -22 34 -15 25 9 19 24 -9 24 -14 0 -25 -4 -25
-9z"/>
<path d="M4573 8863 c-19 -7 -17 -63 2 -63 8 0 15 6 15 13 0 6 3 22 6 35 6 22
1 25 -23 15z"/>
<path d="M4456 8824 c-10 -25 -7 -34 10 -34 10 0 14 6 10 15 -3 8 -1 15 4 15
6 0 10 5 10 10 0 16 -27 11 -34 -6z"/>
<path d="M4370 8825 c0 -8 5 -15 10 -15 6 0 10 7 10 15 0 8 -4 15 -10 15 -5 0
-10 -7 -10 -15z"/>
<path d="M4370 8784 c0 -8 5 -12 10 -9 6 3 10 10 10 16 0 5 -4 9 -10 9 -5 0
-10 -7 -10 -16z"/>
<path d="M3495 8670 c-3 -5 1 -10 10 -10 9 0 13 5 10 10 -3 6 -8 10 -10 10 -2
0 -7 -4 -10 -10z"/>
<path d="M3390 8620 c0 -24 25 -27 34 -4 9 23 8 24 -14 24 -13 0 -20 -7 -20
-20z"/>
<path d="M3490 8630 c0 -5 7 -10 15 -10 8 0 15 5 15 10 0 6 -7 10 -15 10 -8 0
-15 -4 -15 -10z"/>
<path d="M3297 8633 c-4 -3 -7 -19 -7 -34 0 -32 25 -31 33 1 5 20 -15 45 -26
33z"/>
<path d="M3084 8614 c3 -9 6 -21 6 -27 0 -16 20 14 20 31 0 6 -7 12 -16 12
-11 0 -14 -5 -10 -16z"/>
<path d="M3204 8606 c-8 -22 3 -33 18 -18 9 9 9 15 0 24 -9 9 -13 7 -18 -6z"/>
<path d="M7091 8494 c0 -11 3 -14 6 -6 3 7 2 16 -1 19 -3 4 -6 -2 -5 -13z"/>
<path d="M2322 8448 c-13 -13 -16 -48 -4 -48 14 0 32 23 32 42 0 21 -11 23
-28 6z"/>
<path d="M2210 8423 c1 -27 1 -27 15 -9 14 19 12 36 -6 36 -5 0 -9 -12 -9 -27z"/>
<path d="M4905 7150 c-3 -5 -1 -10 4 -10 6 0 11 5 11 10 0 6 -2 10 -4 10 -3 0
-8 -4 -11 -10z"/>
<path d="M8183 6956 c-86 -89 -105 -116 -85 -116 17 0 183 181 180 197 -2 11
-32 -15 -95 -81z"/>
<path d="M8274 6927 c-83 -85 -167 -188 -159 -195 7 -7 235 226 235 240 0 20
-29 3 -76 -45z"/>
<path d="M8370 6903 c-12 -16 -51 -59 -88 -98 -36 -38 -84 -89 -106 -112 -40
-43 -44 -72 -5 -37 47 41 239 254 239 264 0 18 -18 11 -40 -17z"/>
<path d="M7281 6544 c-7 -8 -11 -17 -9 -20 3 -2 13 5 23 16 10 11 14 20 9 20
-5 -1 -15 -8 -23 -16z"/>
<path d="M7258 6493 c7 -3 16 -2 19 1 4 3 -2 6 -13 5 -11 0 -14 -3 -6 -6z"/>
<path d="M7180 6440 c-8 -5 -11 -12 -7 -16 4 -4 13 -2 19 4 15 15 7 24 -12 12z"/>
<path d="M7281 6384 c0 -11 3 -14 6 -6 3 7 2 16 -1 19 -3 4 -6 -2 -5 -13z"/>
<path d="M4636 6175 c-3 -8 -1 -17 3 -20 5 -3 11 2 15 10 3 8 1 17 -3 20 -5 3
-11 -2 -15 -10z"/>
<path d="M3540 5264 c0 -8 5 -12 10 -9 6 3 10 10 10 16 0 5 -4 9 -10 9 -5 0
-10 -7 -10 -16z"/>
<path d="M3410 5139 c0 -5 5 -7 10 -4 6 3 10 8 10 11 0 2 -4 4 -10 4 -5 0 -10
-5 -10 -11z"/>
<path d="M3342 5050 c-7 -11 -8 -20 -3 -20 9 0 24 30 18 36 -1 2 -8 -6 -15
-16z"/>
<path d="M6060 5620 c-13 -8 -12 -10 3 -10 9 0 17 5 17 10 0 12 -1 12 -20 0z"/>
<path d="M6167 5543 c-4 -3 -7 -11 -7 -17 0 -6 5 -5 12 2 6 6 9 14 7 17 -3 3
-9 2 -12 -2z"/>
<path d="M5823 5524 c-13 -6 -6 -34 8 -34 4 0 6 7 3 15 -5 11 -2 13 12 8 12
-4 15 -3 10 5 -8 13 -13 14 -33 6z"/>
<path d="M5728 5488 c-33 -12 -36 -24 -7 -31 16 -4 18 -3 8 9 -9 11 -8 14 4
14 9 0 20 -7 25 -15 7 -14 11 -13 28 6 l19 22 -28 -7 c-19 -4 -26 -3 -22 4 3
5 5 10 3 9 -2 0 -15 -5 -30 -11z"/>
<path d="M5805 5460 c-3 -5 0 -10 7 -10 7 0 24 -3 38 -6 23 -5 23 -5 -4 10
-33 19 -33 19 -41 6z"/>
<path d="M2621 5336 c2 -2 27 -6 54 -9 34 -4 42 -3 25 3 -25 8 -87 13 -79 6z"/>
<path d="M2758 5313 c7 -3 16 -2 19 1 4 3 -2 6 -13 5 -11 0 -14 -3 -6 -6z"/>
<path d="M2808 5303 c7 -3 16 -2 19 1 4 3 -2 6 -13 5 -11 0 -14 -3 -6 -6z"/>
<path d="M2720 4575 c0 -5 5 -17 10 -25 5 -8 10 -10 10 -5 0 6 -5 17 -10 25
-5 8 -10 11 -10 5z"/>
<path d="M2610 4500 c0 -5 7 -10 15 -10 8 0 15 5 15 10 0 6 -7 10 -15 10 -8 0
-15 -4 -15 -10z"/>
<path d="M2400 4421 c0 -24 18 -37 32 -23 8 8 6 15 -5 26 -21 21 -27 20 -27
-3z"/>
<path d="M3865 4850 c3 -5 11 -10 16 -10 6 0 7 5 4 10 -3 6 -11 10 -16 10 -6
0 -7 -4 -4 -10z"/>
<path d="M3830 4829 c0 -5 5 -7 10 -4 6 3 10 8 10 11 0 2 -4 4 -10 4 -5 0 -10
-5 -10 -11z"/>
<path d="M4017 4719 c7 -7 15 -10 18 -7 3 3 -2 9 -12 12 -14 6 -15 5 -6 -5z"/>
<path d="M3798 4673 c7 -3 16 -2 19 1 4 3 -2 6 -13 5 -11 0 -14 -3 -6 -6z"/>
<path d="M1700 4310 c0 -5 5 -10 11 -10 5 0 7 5 4 10 -3 6 -8 10 -11 10 -2 0
-4 -4 -4 -10z"/>
<path d="M1759 4279 c-5 -3 4 -17 21 -32 27 -25 30 -33 30 -87 0 -73 7 -69
-183 -101 l-137 -23 0 -167 c0 -180 5 -199 53 -199 31 0 256 46 291 59 l28 11
-4 245 c-3 241 -4 244 -27 269 -14 14 -20 26 -14 26 6 0 14 -5 16 -10 3 -6 4
-5 3 2 -3 13 -59 18 -77 7z m-182 -441 c-2 -18 -4 -6 -4 27 0 33 2 48 4 33 2
-15 2 -42 0 -60z"/>
<path d="M5146 2849 c-7 -19 -36 -276 -36 -317 0 -18 6 -35 14 -38 12 -5 134
24 179 41 23 10 20 18 -64 178 -77 144 -86 158 -93 136z"/>
<path d="M65 2800 c-8 -14 3 -30 21 -30 16 0 16 2 8 24 -7 18 -20 21 -29 6z"/>
<path d="M160 1640 c0 -5 5 -10 10 -10 6 0 10 5 10 10 0 6 -4 10 -10 10 -5 0
-10 -4 -10 -10z"/>
<path d="M71 446 c-17 -20 -2 -48 23 -44 27 4 32 34 8 47 -15 8 -23 7 -31 -3z"/>
<path d="M597 9292 c-21 -23 -22 -46 -2 -62 13 -11 14 -10 9 4 -3 9 -1 16 6
16 6 0 10 8 8 18 -1 9 1 23 5 30 12 19 -8 14 -26 -6z"/>
<path d="M6400 8600 c0 -6 33 -10 80 -10 47 0 80 4 80 10 0 6 -33 10 -80 10
-47 0 -80 -4 -80 -10z"/>
<path d="M5520 8570 c0 -5 4 -10 9 -10 5 0 18 -3 28 -6 16 -6 16 -5 -2 9 -23
19 -35 21 -35 7z"/>
<path d="M5808 8563 c6 -2 18 -2 25 0 6 3 1 5 -13 5 -14 0 -19 -2 -12 -5z"/>
<path d="M6425 8563 c17 -3 36 -9 43 -15 8 -7 12 -7 12 0 0 6 19 13 43 15 23
2 4 4 -43 4 -47 0 -71 -2 -55 -4z"/>
<path d="M6916 8545 c-7 -19 14 -19 40 0 18 14 18 14 -7 15 -15 0 -29 -7 -33
-15z"/>
<path d="M5225 8530 c-3 -5 3 -10 15 -10 12 0 18 5 15 10 -3 6 -10 10 -15 10
-5 0 -12 -4 -15 -10z"/>
<path d="M4678 8523 c7 -3 16 -2 19 1 4 3 -2 6 -13 5 -11 0 -14 -3 -6 -6z"/>
<path d="M6640 8520 c0 -5 18 -10 40 -10 22 0 40 5 40 10 0 6 -18 10 -40 10
-22 0 -40 -4 -40 -10z"/>
<path d="M6882 8490 c0 -19 2 -27 5 -17 2 9 2 25 0 35 -3 9 -5 1 -5 -18z"/>
<path d="M5438 8503 c7 -3 16 -2 19 1 4 3 -2 6 -13 5 -11 0 -14 -3 -6 -6z"/>
<path d="M6463 8496 c-26 -12 -32 -32 -8 -22 13 5 14 2 4 -16 -10 -18 -9 -20
5 -15 9 4 16 1 16 -5 0 -20 18 5 20 27 5 48 1 51 -37 31z"/>
<path d="M6920 8477 c0 -20 4 -37 10 -37 5 0 7 14 3 33 -8 45 -13 47 -13 4z"/>
<path d="M4498 8493 c7 -3 16 -2 19 1 4 3 -2 6 -13 5 -11 0 -14 -3 -6 -6z"/>
<path d="M5836 8465 c-3 -8 -1 -15 4 -15 6 0 10 7 10 15 0 8 -2 15 -4 15 -2 0
-6 -7 -10 -15z"/>
<path d="M6830 8440 c0 -22 5 -40 10 -40 6 0 10 18 10 40 0 22 -4 40 -10 40
-5 0 -10 -18 -10 -40z"/>
<path d="M6415 8460 c3 -5 8 -10 11 -10 2 0 4 5 4 10 0 6 -5 10 -11 10 -5 0
-7 -4 -4 -10z"/>
<path d="M6080 8429 c0 -5 5 -7 10 -4 6 3 10 8 10 11 0 2 -4 4 -10 4 -5 0 -10
-5 -10 -11z"/>
<path d="M6403 8428 c11 -8 20 -26 20 -41 1 -15 7 -27 12 -27 6 0 2 -5 -8 -11
-22 -13 -82 -31 -74 -23 3 4 -1 13 -9 21 -8 8 -11 19 -8 25 4 7 2 8 -4 4 -7
-4 -9 -17 -6 -31 3 -12 1 -26 -5 -29 -6 -4 -11 -13 -11 -21 0 -19 80 2 102 28
12 13 23 17 39 12 22 -7 22 -7 5 10 -9 10 -15 24 -12 31 3 8 2 14 -2 14 -4 0
-12 10 -17 22 -6 12 -17 24 -25 26 -10 3 -9 0 3 -10z"/>
<path d="M6270 8420 c-8 -5 -10 -10 -5 -10 6 0 17 5 25 10 8 5 11 10 5 10 -5
0 -17 -5 -25 -10z"/>
<path d="M6326 8414 c-4 -9 -4 -19 -1 -22 2 -3 7 3 11 12 4 9 4 19 1 22 -2 3
-7 -3 -11 -12z"/>
<path d="M6546 8421 c-4 -7 -5 -15 -2 -18 9 -9 19 4 14 18 -4 11 -6 11 -12 0z"/>
<path d="M6941 8414 c0 -11 3 -14 6 -6 3 7 2 16 -1 19 -3 4 -6 -2 -5 -13z"/>
<path d="M6466 8395 c-4 -16 -3 -32 3 -38 6 -6 9 -3 7 9 -2 11 0 21 5 24 4 3
4 11 0 19 -6 9 -10 5 -15 -14z"/>
<path d="M6782 8401 c-10 -6 -10 -10 3 -21 13 -11 15 -9 15 9 0 24 0 24 -18
12z"/>
<path d="M5793 8385 c5 -16 37 -18 37 -3 0 8 -9 14 -20 14 -11 0 -19 -5 -17
-11z"/>
<path d="M5920 8390 c-9 -6 -10 -10 -3 -10 6 0 15 5 18 10 8 12 4 12 -15 0z"/>
<path d="M6198 8393 c7 -3 16 -2 19 1 4 3 -2 6 -13 5 -11 0 -14 -3 -6 -6z"/>
<path d="M5939 8357 c7 -7 14 -8 21 -1 6 6 2 10 -12 11 -16 2 -18 -1 -9 -10z"/>
<path d="M6013 8354 c4 -6 9 -31 11 -55 2 -24 4 -48 5 -52 1 -5 6 -5 13 -1 7
4 8 3 4 -5 -9 -14 2 -67 11 -57 3 3 7 20 7 38 1 21 -4 33 -15 35 -12 4 -16 14
-14 39 2 21 -3 40 -13 52 -9 10 -14 13 -9 6z"/>
<path d="M6171 8348 c1 -18 2 -19 6 -5 2 9 9 15 14 12 5 -4 9 -1 9 4 0 6 -7
11 -15 11 -9 0 -15 -9 -14 -22z"/>
<path d="M5910 8356 c0 -2 8 -10 18 -17 15 -13 16 -12 3 4 -13 16 -21 21 -21
13z"/>
<path d="M5830 8334 c0 -8 5 -12 10 -9 6 4 8 11 5 16 -9 14 -15 11 -15 -7z"/>
<path d="M5975 8330 c-3 -5 -1 -10 4 -10 6 0 11 5 11 10 0 6 -2 10 -4 10 -3 0
-8 -4 -11 -10z"/>
<path d="M6277 8321 c-5 -21 -27 -30 -27 -11 0 6 -5 10 -11 10 -6 0 -9 -9 -6
-20 4 -17 0 -19 -33 -16 -20 2 -42 6 -48 10 -7 4 -9 -3 -6 -21 2 -16 1 -23 -3
-17 -12 17 -43 13 -44 -5 0 -10 -2 -12 -6 -3 -8 20 -22 14 -16 -8 6 -23 43
-28 43 -5 0 9 6 12 15 9 9 -4 18 1 22 12 5 11 18 20 31 21 13 2 21 -1 17 -6
-3 -5 0 -13 7 -18 18 -11 39 -13 33 -3 -7 11 5 40 17 40 5 0 6 -9 3 -21 -6
-18 -5 -19 14 -7 14 8 16 15 9 19 -9 6 -8 12 2 24 9 11 10 19 3 26 -7 7 -12 4
-16 -10z"/>
<path d="M6485 8330 c-3 -5 -1 -10 4 -10 6 0 11 5 11 10 0 6 -2 10 -4 10 -3 0
-8 -4 -11 -10z"/>
<path d="M5770 8325 c0 -2 7 -8 15 -15 12 -10 15 -10 15 2 0 8 -7 15 -15 15
-8 0 -15 -1 -15 -2z"/>
<path d="M5684 8309 c-10 -16 19 -20 34 -6 14 15 13 16 -7 14 -12 -1 -25 -5
-27 -8z"/>
<path d="M5630 8290 c0 -5 5 -10 10 -10 6 0 10 5 10 10 0 6 -4 10 -10 10 -5 0
-10 -4 -10 -10z"/>
<path d="M5985 8290 c-3 -5 -1 -10 4 -10 6 0 11 5 11 10 0 6 -2 10 -4 10 -3 0
-8 -4 -11 -10z"/>
<path d="M6060 8280 c-12 -8 -10 -10 8 -10 13 0 20 4 17 10 -7 12 -6 12 -25 0z"/>
<path d="M5550 8264 c0 -16 2 -16 24 -8 22 8 20 19 -4 21 -11 1 -20 -4 -20
-13z"/>
<path d="M5488 8252 c-15 -16 -14 -17 13 -19 32 -2 32 -2 23 21 -8 20 -15 19
-36 -2z"/>
<path d="M5939 8257 c11 -14 11 -18 -3 -23 -9 -3 -22 -1 -29 5 -10 8 -26 4
-62 -16 -32 -16 -50 -22 -53 -14 -4 13 -22 15 -22 2 0 -10 61 -34 68 -26 3 3
-1 5 -9 5 -12 0 -11 2 1 10 11 7 17 4 22 -10 4 -11 15 -20 24 -20 10 0 14 3
11 7 -4 3 11 17 34 29 38 22 42 23 65 8 21 -15 24 -15 30 -1 8 21 -1 34 -28
40 -13 2 -32 8 -43 13 -18 7 -18 6 -6 -9z m-44 -47 c-3 -5 -10 -10 -16 -10 -5
0 -9 5 -9 10 0 6 7 10 16 10 8 0 12 -4 9 -10z"/>
<path d="M6175 8251 c3 -5 -1 -11 -7 -14 -7 -2 -11 -7 -8 -10 3 -3 13 0 23 8
16 11 16 13 2 19 -9 3 -14 2 -10 -3z"/>
<path d="M5689 8228 l24 -27 -27 -7 c-17 -4 -35 0 -51 10 -36 24 -31 4 6 -23
l31 -23 20 21 c13 14 26 20 39 16 10 -4 19 -2 19 3 0 5 -8 12 -17 15 -10 4
-29 14 -43 24 l-25 17 24 -26z"/>
<path d="M5468 8213 c7 -3 16 -2 19 1 4 3 -2 6 -13 5 -11 0 -14 -3 -6 -6z"/>
<path d="M5475 8190 c-3 -5 -2 -10 4 -10 5 0 13 5 16 10 3 6 2 10 -4 10 -5 0
-13 -4 -16 -10z"/>
<path d="M5910 8183 c-13 -15 -12 -16 4 -10 10 4 20 7 22 7 2 0 4 5 4 10 0 15
-13 12 -30 -7z"/>
<path d="M5620 8170 c0 -5 5 -10 11 -10 5 0 7 5 4 10 -3 6 -8 10 -11 10 -2 0
-4 -4 -4 -10z"/>
<path d="M5710 8170 c-9 -6 -10 -10 -3 -10 6 0 15 5 18 10 8 12 4 12 -15 0z"/>
<path d="M5974 8168 c-5 -7 -3 -8 6 -3 7 4 15 2 20 -5 5 -8 9 -7 13 4 8 19
-28 23 -39 4z"/>
<path d="M4820 8143 c0 -4 5 -15 10 -23 8 -13 10 -13 10 2 0 9 -4 20 -10 23
-5 3 -10 3 -10 -2z"/>
<path d="M4927 8129 c4 -13 8 -18 11 -10 2 7 -1 18 -6 23 -8 8 -9 4 -5 -13z"/>
<path d="M7000 8120 c0 -5 5 -10 10 -10 6 0 10 5 10 10 0 6 -4 10 -10 10 -5 0
-10 -4 -10 -10z"/>
<path d="M4720 8110 c0 -5 5 -10 11 -10 5 0 7 5 4 10 -3 6 -8 10 -11 10 -2 0
-4 -4 -4 -10z"/>
<path d="M4785 8110 c-3 -5 -1 -10 4 -10 6 0 11 5 11 10 0 6 -2 10 -4 10 -3 0
-8 -4 -11 -10z"/>
<path d="M7035 8090 c-3 -5 3 -10 15 -10 12 0 18 5 15 10 -3 6 -10 10 -15 10
-5 0 -12 -4 -15 -10z"/>
<path d="M4680 8080 c0 -5 5 -10 11 -10 5 0 7 5 4 10 -3 6 -8 10 -11 10 -2 0
-4 -4 -4 -10z"/>
<path d="M4631 8064 c0 -11 3 -14 6 -6 3 7 2 16 -1 19 -3 4 -6 -2 -5 -13z"/>
<path d="M4908 8052 c-23 -14 -31 -15 -48 -4 -27 17 -39 15 -16 -3 27 -20 49
-19 77 5 29 23 24 24 -13 2z"/>
<path d="M6400 8031 c0 -4 -14 -5 -32 -3 -36 5 -58 -16 -58 -57 -1 -14 -7 -44
-15 -66 -9 -24 -11 -41 -5 -43 6 -2 7 -15 4 -29 -4 -13 -1 -35 6 -48 10 -18
18 -22 42 -18 27 4 29 3 19 -16 -14 -25 -15 -53 -2 -32 6 10 8 0 4 -27 -6 -41
-5 -42 28 -49 33 -7 33 -7 9 -14 -19 -6 -15 -7 20 -7 43 0 87 -7 120 -19 8 -3
27 -5 43 -4 15 2 27 -2 27 -8 0 -6 3 -10 8 -9 4 1 18 -4 31 -11 20 -11 25 -11
32 0 7 11 11 11 17 1 13 -20 54 -23 74 -5 17 15 18 15 18 -2 0 -16 3 -15 23 6
13 13 20 28 16 33 -4 4 2 17 12 27 24 24 25 49 2 50 -10 0 -2 6 17 13 19 6 34
16 34 21 -1 6 -5 32 -9 59 -3 27 -3 46 2 43 5 -3 15 -1 23 4 12 8 12 12 2 16
-10 4 -9 9 4 24 16 18 16 20 -1 39 -23 26 -31 25 -40 -2 -6 -21 -8 -21 -12 -4
-3 10 0 22 7 26 12 7 4 56 -11 66 -5 3 -6 -3 -2 -12 4 -12 2 -15 -8 -12 -8 3
-13 10 -12 16 1 5 -7 8 -19 4 -15 -3 -19 -2 -14 7 6 8 1 10 -17 6 -24 -6 -278
19 -349 35 -21 4 -38 5 -38 1z m215 -76 c186 -20 197 -23 191 -43 -3 -10 -13
-51 -22 -92 -15 -70 -28 -100 -38 -89 -2 2 2 42 10 88 8 46 13 85 11 87 -8 8
-152 34 -224 40 -79 7 -79 7 -104 -23 -13 -17 -32 -45 -41 -62 -19 -34 -48
-42 -48 -13 0 10 5 44 11 76 l12 57 51 -6 c28 -3 114 -12 191 -20z m89 -111
c3 -8 2 -12 -4 -9 -6 3 -10 10 -10 16 0 14 7 11 14 -7z m159 -14 c3 13 9 21
13 18 8 -9 -18 -79 -38 -102 -10 -11 -18 -15 -18 -8 0 6 5 14 11 17 5 4 9 19
8 33 -1 15 -1 36 0 47 3 17 4 16 10 -5 l7 -25 7 25z m14 -72 c-3 -8 -6 -5 -6
6 -1 11 2 17 5 13 3 -3 4 -12 1 -19z m-320 -19 c43 -5 86 -12 96 -15 18 -6 24
-49 7 -59 -12 -7 -211 15 -223 25 -4 4 -5 19 -1 34 7 30 11 30 121 15z m318
-19 c3 -5 -1 -10 -10 -10 -9 0 -13 5 -10 10 3 6 8 10 10 10 2 0 7 -4 10 -10z
m-73 -104 c3 -16 1 -23 -7 -19 -7 2 -11 13 -8 24 7 25 10 24 15 -5z"/>
<path d="M6880 8030 c0 -5 5 -10 10 -10 6 0 10 5 10 10 0 6 -4 10 -10 10 -5 0
-10 -4 -10 -10z"/>
<path d="M7 8023 c-4 -3 -7 -11 -7 -17 0 -6 5 -5 12 2 6 6 9 14 7 17 -3 3 -9
2 -12 -2z"/>
<path d="M4860 8009 c0 -5 5 -7 10 -4 6 3 10 8 10 11 0 2 -4 4 -10 4 -5 0 -10
-5 -10 -11z"/>
<path d="M6945 8010 c-19 -8 -19 -9 3 -9 12 -1 22 4 22 9 0 6 -1 10 -2 9 -2 0
-12 -4 -23 -9z"/>
<path d="M5945 7970 c3 -5 8 -10 11 -10 2 0 4 5 4 10 0 6 -5 10 -11 10 -5 0
-7 -4 -4 -10z"/>
<path d="M5990 7922 c0 -7 -6 -12 -14 -12 -8 0 -18 -4 -21 -10 -9 -15 8 -12
31 4 10 8 16 18 11 22 -4 4 -7 2 -7 -4z"/>
<path d="M7011 7901 c-9 -6 -10 -11 -2 -15 13 -8 31 1 31 15 0 11 -11 11 -29
0z"/>
<path d="M5956 7865 c-3 -8 -1 -15 4 -15 6 0 10 7 10 15 0 8 -2 15 -4 15 -2 0
-6 -7 -10 -15z"/>
<path d="M6970 7870 c-12 -8 -10 -10 8 -10 13 0 20 4 17 10 -7 12 -6 12 -25 0z"/>
<path d="M7077 7813 c-4 -3 -7 -13 -7 -22 1 -13 3 -13 11 2 11 19 8 33 -4 20z"/>
<path d="M6946 7732 c-2 -4 -1 -14 5 -22 7 -12 9 -10 9 8 0 23 -5 28 -14 14z"/>
<path d="M6915 7684 c-21 -16 -5 -18 29 -5 16 6 17 9 5 13 -8 3 -23 0 -34 -8z"/>
<path d="M6138 7643 c7 -3 16 -2 19 1 4 3 -2 6 -13 5 -11 0 -14 -3 -6 -6z"/>
<path d="M6888 7643 c6 -2 18 -2 25 0 6 3 1 5 -13 5 -14 0 -19 -2 -12 -5z"/>
<path d="M6888 7613 c7 -3 16 -2 19 1 4 3 -2 6 -13 5 -11 0 -14 -3 -6 -6z"/>
<path d="M6388 7583 c7 -3 16 -2 19 1 4 3 -2 6 -13 5 -11 0 -14 -3 -6 -6z"/>
<path d="M6845 7570 c4 -6 11 -8 16 -5 14 9 11 15 -7 15 -8 0 -12 -5 -9 -10z"/>
<path d="M6820 7550 c0 -5 5 -10 11 -10 5 0 7 5 4 10 -3 6 -8 10 -11 10 -2 0
-4 -4 -4 -10z"/>
<path d="M6755 7541 c-3 -5 3 -12 14 -16 11 -3 21 -14 23 -23 3 -13 5 -12 10
6 4 15 2 22 -8 22 -8 0 -14 5 -14 10 0 13 -17 13 -25 1z"/>
<path d="M6688 7533 c7 -3 16 -2 19 1 4 3 -2 6 -13 5 -11 0 -14 -3 -6 -6z"/>
<path d="M6857 7519 c7 -7 15 -10 18 -7 3 3 -2 9 -12 12 -14 6 -15 5 -6 -5z"/>
<path d="M6736 7505 c-3 -8 -1 -15 4 -15 6 0 10 7 10 15 0 8 -2 15 -4 15 -2 0
-6 -7 -10 -15z"/>
<path d="M6920 7509 c0 -5 5 -7 10 -4 6 3 10 8 10 11 0 2 -4 4 -10 4 -5 0 -10
-5 -10 -11z"/>
<path d="M6889 7484 c-6 -37 -2 -93 6 -91 5 2 8 23 6 48 -3 41 -9 64 -12 43z"/>
<path d="M6760 7460 c0 -19 11 -26 23 -14 8 8 -3 34 -14 34 -5 0 -9 -9 -9 -20z"/>
<path d="M6800 7446 c0 -10 -9 -16 -22 -16 -21 0 -21 0 -2 -14 16 -13 19 -13
22 0 2 8 10 14 19 14 17 0 13 22 -5 28 -7 2 -12 -3 -12 -12z"/>
<path d="M2925 7224 c-104 -38 -163 -168 -121 -268 18 -43 78 -92 130 -104 66
-17 158 9 197 54 94 109 45 286 -89 324 -48 13 -68 12 -117 -6z m43 -77 c4
-20 -56 -85 -83 -89 -16 -2 -20 2 -18 26 4 59 91 113 101 63z"/>
<path d="M2326 6998 c62 -69 281 -325 287 -335 4 -7 -14 -23 -50 -43 -91 -51
-130 -87 -159 -145 -26 -54 -27 -55 -71 -55 -54 0 -104 -24 -171 -85 -29 -26
-58 -45 -66 -42 -7 3 -71 78 -142 168 -181 227 -171 216 -185 202 -9 -9 -6
-22 15 -57 15 -25 35 -54 44 -64 10 -9 71 -83 135 -164 136 -170 128 -168 228
-73 54 52 125 85 183 85 29 0 40 10 61 49 34 67 167 171 219 171 21 0 29 17
17 37 -5 10 -79 97 -163 193 -109 124 -161 176 -178 178 l-25 4 21 -24z"/>
<path d="M2174 6973 c-16 -16 -15 -18 15 -25 17 -5 39 -21 48 -36 21 -32 212
-264 227 -274 14 -9 29 -5 33 9 3 8 -194 249 -254 311 -7 7 -13 18 -13 23 0
15 -38 10 -56 -8z"/>
<path d="M2102 6718 c-15 -15 -15 -28 -1 -28 5 0 8 4 4 9 -3 5 3 11 12 13 11
2 14 6 7 10 -6 4 -16 2 -22 -4z"/>
<path d="M2080 6669 c0 -11 37 -12 43 -1 3 4 -6 8 -19 8 -13 1 -24 -2 -24 -7z"/>
<path d="M2207 6113 c-14 -13 -6 -56 14 -85 21 -29 21 -29 43 -10 11 11 31 25
44 31 27 14 29 31 3 31 -14 0 -18 5 -14 20 5 18 0 20 -39 20 -25 0 -48 -3 -51
-7z"/>
<path d="M2000 5803 c-31 -12 -50 -36 -44 -57 10 -33 45 -66 71 -66 46 0 63
17 63 63 0 24 -5 48 -12 55 -12 12 -51 15 -78 5z"/>
<path d="M1806 5739 c-54 -64 -21 -162 92 -277 39 -40 78 -72 87 -72 24 0 18
10 -50 83 -129 138 -144 180 -99 270 19 36 2 34 -30 -4z"/>
<path d="M1630 5044 c0 -13 18 -39 24 -34 2 3 -2 14 -10 24 -8 11 -14 16 -14
10z"/>
<path d="M16 1647 c-29 -21 -17 -51 22 -55 32 -3 33 -2 30 30 -3 37 -23 46
-52 25z m44 -21 c0 -9 -30 -14 -35 -6 -4 6 3 10 14 10 12 0 21 -2 21 -4z"/>
</g>
</svg>
